<svg id="Capa_1" data-name="Capa 1" xmlns="http://www.w3.org/2000/svg" viewBox="0 0 109.96 145.75"><defs><style>.cls-1{fill:#c8d10e;}.cls-2{font-size:18.82px;fill:#003057;font-family:Playfair Display;font-weight:700;}</style></defs><title>catalogo-spot</title><path class="cls-1" d="M108.51,56A63.09,63.09,0,0,0,105,44.58c-8.47-20-27.78-35-51.72-40A76.86,76.86,0,0,0,0,12.11V135.64a68.68,68.68,0,0,0,8.61,5.45,62.29,62.29,0,0,0,55,2.11A77.08,77.08,0,0,0,107,92.62,79.8,79.8,0,0,0,108.51,56Z" transform="translate(0 -2.83)"/><text class="cls-2" transform="translate(6.72 73.87)">N<tspan x="13.21" y="0">o</tspan><tspan x="23.6" y="0">v</tspan><tspan x="32.87" y="0">edades</tspan></text></svg>