<svg id="Capa_1" data-name="Capa 1" xmlns="http://www.w3.org/2000/svg" viewBox="0 0 224.92 266.6"><defs><style>.cls-1{fill:#005a70;}.cls-2{fill:#fff;}.cls-3{fill:#ccd50e;}</style></defs><title>fingerprint_catalogo_universitario</title><path class="cls-1" d="M222.27,103.76a115.4,115.4,0,0,0-6.47-20.92C200.3,46.23,165,18.87,121.19,9.72,84.83,2,47.86,8.16,17.42,27.15A136.27,136.27,0,0,0,0,40V226.68a129.83,129.83,0,0,0,39.53,32.68c31.74,16.83,67.48,18.2,100.53,3.86,38.63-16.67,68.37-51.28,79.39-92.51C225.58,147.91,226.61,124.78,222.27,103.76Z" transform="translate(0 -6.46)"/><path class="cls-2" d="M46.26,77.08a0.5,0.5,0,0,0-.45-0.38,1.14,1.14,0,0,0-.56.23,15.85,15.85,0,0,1-1.5.94,7.07,7.07,0,0,1-1.58.61,7.9,7.9,0,0,1-2,.24A10.62,10.62,0,0,1,35,77.53a8.18,8.18,0,0,1-3.4-3.43,11.21,11.21,0,0,1-1.2-5.35,11.32,11.32,0,0,1,1.24-5.37,8.93,8.93,0,0,1,3.45-3.63,9.86,9.86,0,0,1,5.05-1.29,7.46,7.46,0,0,1,2.8.47,9.67,9.67,0,0,1,2.26,1.32,0.93,0.93,0,0,0,.54.24q0.56,0,.7-1.64h0.63Q47,60.71,47,65.51H46.37A21.59,21.59,0,0,0,46,63.26a5.38,5.38,0,0,0-.6-1.52,6.25,6.25,0,0,0-2.68-2.21,5.35,5.35,0,0,0-1.89-.34,4.08,4.08,0,0,0-3.12,1.3,7.85,7.85,0,0,0-1.79,3.44,18.43,18.43,0,0,0-.56,4.71,17.63,17.63,0,0,0,.59,4.72,7.72,7.72,0,0,0,1.85,3.42,4.21,4.21,0,0,0,3.14,1.28,5.18,5.18,0,0,0,1.87-.35,4.16,4.16,0,0,0,1.54-1,4.09,4.09,0,0,0,1.09-1.24A5.71,5.71,0,0,0,46,73.82q0.19-.93.36-2.43H47q0,5,.11,6.93H46.48A4.57,4.57,0,0,0,46.26,77.08Z" transform="translate(0 -6.46)"/><path class="cls-2" d="M56.39,64.91a2.08,2.08,0,0,0-1.7-.66,3.57,3.57,0,0,0-1.07.17,2.2,2.2,0,0,0-.89.5,2.47,2.47,0,0,1,1.2.8,2.13,2.13,0,0,1,.43,1.36,1.9,1.9,0,0,1-.28,1,1.93,1.93,0,0,1-.79.71,2.53,2.53,0,0,1-1.17.26,1.79,1.79,0,0,1-1.42-.6A2.22,2.22,0,0,1,50.17,67a2.63,2.63,0,0,1,1.53-2.31,8.59,8.59,0,0,1,4.19-.93,5.43,5.43,0,0,1,4,1.24,2.93,2.93,0,0,1,.78,1.44,11.11,11.11,0,0,1,.2,2.4v7.48a2.46,2.46,0,0,0,.13.95,0.45,0.45,0,0,0,.45.28,1.72,1.72,0,0,0,1-.47l0.28,0.47a4.17,4.17,0,0,1-1.37.77,5.74,5.74,0,0,1-1.77.24,2.77,2.77,0,0,1-2-.62A2.18,2.18,0,0,1,57,76.28,4.34,4.34,0,0,1,55.24,78a5,5,0,0,1-2.32.56,3.7,3.7,0,0,1-2.52-.83,2.89,2.89,0,0,1-.95-2.3A3.22,3.22,0,0,1,50.39,73a8,8,0,0,1,2.92-1.67l1.4-.53a5.62,5.62,0,0,0,1.71-.92,1.38,1.38,0,0,0,.52-1V66.71A2.74,2.74,0,0,0,56.39,64.91Zm0,5.68a12.16,12.16,0,0,1-1.13.77,5,5,0,0,0-1.37,1.36,3.38,3.38,0,0,0-.5,1.89,2.36,2.36,0,0,0,.47,1.6,1.57,1.57,0,0,0,1.24.53,2.24,2.24,0,0,0,1.87-1.13V70A2.34,2.34,0,0,1,56.36,70.59Z" transform="translate(0 -6.46)"/><path class="cls-2" d="M72.42,64.12v0.55H69.17v11.1a1.78,1.78,0,0,0,.3,1.16,1.14,1.14,0,0,0,.91.34q1.17,0,1.87-1.65l0.47,0.26A3.79,3.79,0,0,1,69,78.71a3.73,3.73,0,0,1-2.75-.94,2.89,2.89,0,0,1-.79-1.43,10.78,10.78,0,0,1-.21-2.4V64.67H62.89V64.12h2.31V60.47a8.43,8.43,0,0,0,4-.89v4.54h3.25Z" transform="translate(0 -6.46)"/><path class="cls-2" d="M80.32,64.91a2.08,2.08,0,0,0-1.7-.66,3.57,3.57,0,0,0-1.07.17,2.2,2.2,0,0,0-.89.5,2.47,2.47,0,0,1,1.2.8,2.13,2.13,0,0,1,.43,1.36,1.9,1.9,0,0,1-.28,1,1.93,1.93,0,0,1-.79.71,2.53,2.53,0,0,1-1.17.26,1.79,1.79,0,0,1-1.42-.6A2.22,2.22,0,0,1,74.11,67a2.63,2.63,0,0,1,1.53-2.31,8.59,8.59,0,0,1,4.19-.93,5.43,5.43,0,0,1,4,1.24,2.93,2.93,0,0,1,.78,1.44,11.11,11.11,0,0,1,.2,2.4v7.48a2.46,2.46,0,0,0,.13.95,0.45,0.45,0,0,0,.45.28,1.72,1.72,0,0,0,1-.47l0.28,0.47a4.17,4.17,0,0,1-1.37.77,5.74,5.74,0,0,1-1.77.24,2.77,2.77,0,0,1-2-.62,2.18,2.18,0,0,1-.62-1.61A4.34,4.34,0,0,1,79.18,78a5,5,0,0,1-2.32.56,3.7,3.7,0,0,1-2.52-.83,2.89,2.89,0,0,1-.95-2.3A3.22,3.22,0,0,1,74.33,73a8,8,0,0,1,2.92-1.67l1.4-.53a5.62,5.62,0,0,0,1.71-.92,1.38,1.38,0,0,0,.52-1V66.71A2.74,2.74,0,0,0,80.32,64.91Zm0,5.68a12.16,12.16,0,0,1-1.13.77,5,5,0,0,0-1.37,1.36,3.38,3.38,0,0,0-.5,1.89,2.36,2.36,0,0,0,.47,1.6,1.57,1.57,0,0,0,1.24.53,2.24,2.24,0,0,0,1.87-1.13V70A2.34,2.34,0,0,1,80.3,70.59ZM79.13,59q0.46-1.19.71-1.78a3.79,3.79,0,0,1,.65-1,1.55,1.55,0,0,1,.57-0.48,1.59,1.59,0,0,1,.71-0.17,1.43,1.43,0,0,1,1,.35,1.29,1.29,0,0,1,.51,1.06A1.73,1.73,0,0,1,82.83,58a6.4,6.4,0,0,1-1.28,1.14l-1.61,1.18a23.07,23.07,0,0,0-1.77,1.5l-0.3-.24A22.3,22.3,0,0,0,79.13,59Z" transform="translate(0 -6.46)"/><path class="cls-2" d="M93.29,77a1,1,0,0,0,.55.6,2.55,2.55,0,0,0,1,.17v0.58Q92,78.21,91.2,78.21t-3.8.11V77.74a2.5,2.5,0,0,0,1-.17A1.08,1.08,0,0,0,89,77a3.28,3.28,0,0,0,.17-1.2V60.08a3.32,3.32,0,0,0-.4-1.85,1.54,1.54,0,0,0-1.36-.57V57.08q0.87,0.08,1.71.08a17.33,17.33,0,0,0,4-.39v19A3.39,3.39,0,0,0,93.29,77Z" transform="translate(0 -6.46)"/><path class="cls-2" d="M107.83,65.52q1.79,1.8,1.79,5.71t-1.79,5.69a7.7,7.7,0,0,1-9.88,0q-1.8-1.79-1.8-5.69t1.8-5.7A7.67,7.67,0,0,1,107.83,65.52ZM101,66a14.67,14.67,0,0,0-.71,5.25,14.5,14.5,0,0,0,.71,5.23q0.71,1.71,1.89,1.71t1.89-1.7a14.75,14.75,0,0,0,.69-5.23,14.92,14.92,0,0,0-.69-5.26q-0.69-1.71-1.89-1.71T101,66Z" transform="translate(0 -6.46)"/><path class="cls-2" d="M124.25,75.49a2.51,2.51,0,0,1,1,2.25,4.85,4.85,0,0,1-.89,2.73,6.41,6.41,0,0,1-2.69,2.17,10.28,10.28,0,0,1-4.39.85,15.27,15.27,0,0,1-3.38-.32,5.14,5.14,0,0,1-2-.85,1.55,1.55,0,0,1-.67-1.22,1.22,1.22,0,0,1,.56-1.1,8,8,0,0,1,1.82-.77,6.84,6.84,0,0,0,1.79-.78h-0.65a4.19,4.19,0,0,1-2.11-.55,2.1,2.1,0,0,1-1-2,3.08,3.08,0,0,1,.33-1.43,3.78,3.78,0,0,1,1.09-1.22,11.73,11.73,0,0,1,2-1.2,4.69,4.69,0,0,1-2.2-1.47,3.85,3.85,0,0,1-.79-2.49,3.69,3.69,0,0,1,1.62-3.27,7.54,7.54,0,0,1,4.29-1.09,10.45,10.45,0,0,1,2,.19,5.12,5.12,0,0,1,.11-1.38,3.14,3.14,0,0,1,.78-1.83,2.37,2.37,0,0,1,1.83-.69,2.22,2.22,0,0,1,1.44.46,1.49,1.49,0,0,1,.57,1.22,1.43,1.43,0,0,1-.54,1.15,2.07,2.07,0,0,1-1.36.45,2,2,0,0,1-1.3-.39,2.46,2.46,0,0,1-.73-1.15,3.76,3.76,0,0,0-.42,1.41q0,0.13,0,.4c0,0.2,0,.34,0,0.44A5,5,0,0,1,123,65.43a3.81,3.81,0,0,1,.93,2.65,3.87,3.87,0,0,1-.76,2.44A4.47,4.47,0,0,1,121.11,72a9,9,0,0,1-3.06.48,9.8,9.8,0,0,1-2.38-.27,6,6,0,0,0-1.18.83,1.17,1.17,0,0,0-.38.86,0.9,0.9,0,0,0,1.1.91h6.35A4.71,4.71,0,0,1,124.25,75.49Zm-9,4a3.14,3.14,0,0,0-.25,1.14,2,2,0,0,0,.87,1.75,3.77,3.77,0,0,0,2.22.61,5.24,5.24,0,0,0,2.08-.41,3.61,3.61,0,0,0,1.53-1.19,3,3,0,0,0,.57-1.81,1.06,1.06,0,0,0-.35-0.87,2.05,2.05,0,0,0-1.25-.28h-4.71A2.88,2.88,0,0,0,115.21,79.52Zm1.47-14.43a6.87,6.87,0,0,0-.47,3,6.87,6.87,0,0,0,.47,3,1.51,1.51,0,0,0,2.75,0,7,7,0,0,0,.46-3,7,7,0,0,0-.46-3A1.51,1.51,0,0,0,116.68,65.09Z" transform="translate(0 -6.46)"/><path class="cls-2" d="M138.32,65.52q1.79,1.8,1.79,5.71t-1.79,5.69a7.7,7.7,0,0,1-9.88,0q-1.8-1.79-1.8-5.69t1.8-5.7A7.67,7.67,0,0,1,138.32,65.52Zm-6.82.46a14.67,14.67,0,0,0-.71,5.25,14.5,14.5,0,0,0,.71,5.23q0.71,1.71,1.89,1.71t1.89-1.7a14.75,14.75,0,0,0,.69-5.23,14.92,14.92,0,0,0-.69-5.26q-0.69-1.71-1.89-1.71T131.49,66Z" transform="translate(0 -6.46)"/><path class="cls-2" d="M46.39,92.87a1.78,1.78,0,0,0-.58,1A10.68,10.68,0,0,0,45.66,96v7.29a11.72,11.72,0,0,1-1.13,5.83,5,5,0,0,1-2.15,1.89,7.9,7.9,0,0,1-3.44.67,7.92,7.92,0,0,1-5-1.38,4.85,4.85,0,0,1-1.34-1.63,6.88,6.88,0,0,1-.63-2.17,24.15,24.15,0,0,1-.17-3.14V94.77a5.28,5.28,0,0,0-.15-1.5,1,1,0,0,0-.58-0.64,4.26,4.26,0,0,0-1.34-.21V91.86q1.41,0.08,4.29.08t4.38-.08v0.55a4.88,4.88,0,0,0-1.44.21,1,1,0,0,0-.62.64,4.87,4.87,0,0,0-.17,1.5v10.37a11.68,11.68,0,0,0,.35,3.15,3.39,3.39,0,0,0,1.18,1.84,3.7,3.7,0,0,0,2.28.62,4.18,4.18,0,0,0,3.88-1.85A10.13,10.13,0,0,0,45,103.64V96.37A10.53,10.53,0,0,0,44.83,94a1.77,1.77,0,0,0-.75-1.12,4.14,4.14,0,0,0-1.73-.47V91.86q1,0.08,3,.08,1.53,0,2.39-.08v0.55A2.68,2.68,0,0,0,46.39,92.87Z" transform="translate(0 -6.46)"/><path class="cls-2" d="M58.64,96.73a5.36,5.36,0,0,1,1.85.27,2.85,2.85,0,0,1,1.18.79,3.15,3.15,0,0,1,.66,1.36,9.86,9.86,0,0,1,.2,2.23v7.4a3.26,3.26,0,0,0,.17,1.2,1.08,1.08,0,0,0,.55.6,2.5,2.5,0,0,0,1,.17v0.58q-2.74-.11-3.63-0.11t-3.59.11v-0.58a1.87,1.87,0,0,0,.89-0.17,1,1,0,0,0,.46-0.6,4,4,0,0,0,.14-1.2v-8.56a3.2,3.2,0,0,0-.37-1.71,1.46,1.46,0,0,0-1.34-.58,2.43,2.43,0,0,0-1.38.42,2.89,2.89,0,0,0-1,1.15,3.6,3.6,0,0,0-.36,1.62v7.66a3.81,3.81,0,0,0,.15,1.2,1,1,0,0,0,.47.6,1.84,1.84,0,0,0,.87.17v0.58q-2.53-.11-3.41-0.11t-3.8.11v-0.58a2.55,2.55,0,0,0,1-.17A1.05,1.05,0,0,0,50,110a3.39,3.39,0,0,0,.17-1.2V100.1a3.37,3.37,0,0,0-.39-1.85,1.54,1.54,0,0,0-1.37-.57V97.11q0.87,0.08,1.71.08a17.81,17.81,0,0,0,4-.38v2.47A4.58,4.58,0,0,1,58.64,96.73Z" transform="translate(0 -6.46)"/><path class="cls-2" d="M71.18,110a1.08,1.08,0,0,0,.55.6,2.5,2.5,0,0,0,1,.17v0.58q-2.74-.11-3.65-0.11t-3.83.11v-0.58a2.55,2.55,0,0,0,1-.17,1.05,1.05,0,0,0,.55-0.6,3.39,3.39,0,0,0,.17-1.2V100.1a3.37,3.37,0,0,0-.39-1.85,1.54,1.54,0,0,0-1.37-.57V97.11q0.87,0.08,1.71.08a17.81,17.81,0,0,0,4-.38v12A3.26,3.26,0,0,0,71.18,110Zm-0.5-19.4a2.11,2.11,0,0,1,0,3.1,3.25,3.25,0,0,1-3.66,0,2.13,2.13,0,0,1,0-3.1A3.25,3.25,0,0,1,70.68,90.58Z" transform="translate(0 -6.46)"/><path class="cls-2" d="M85,97.19a19.89,19.89,0,0,0,2.11-.08v0.55a2.16,2.16,0,0,0-1,.69,5.25,5.25,0,0,0-.87,1.67l-4,11.36q-0.44,0-.9,0t-0.89,0l-4.9-12.16Q73.92,97.69,73,97.69V97.11q1.92,0.13,3.9.13,1.75,0,3.59-.13v0.58a7.06,7.06,0,0,0-1.14.07,0.69,0.69,0,0,0-.53.39,1.5,1.5,0,0,0,.07,1L82,107.53l2-5.47a6.91,6.91,0,0,0,.44-2.22,2,2,0,0,0-2-2.19V97.11Q83.68,97.19,85,97.19Z" transform="translate(0 -6.46)"/><path class="cls-2" d="M91.91,104.12a7.79,7.79,0,0,0,.51,3,3.91,3.91,0,0,0,1.32,1.76,3,3,0,0,0,1.74.56,4.14,4.14,0,0,0,3.64-2.2l0.48,0.16a6.86,6.86,0,0,1-1.08,2.1,5.69,5.69,0,0,1-1.85,1.58,5.26,5.26,0,0,1-2.56.61,6.66,6.66,0,0,1-3.32-.81,5.44,5.44,0,0,1-2.23-2.45,10.8,10.8,0,0,1,.06-8.3A5.91,5.91,0,0,1,91,97.59a7,7,0,0,1,3.51-.86q5.17,0,5.17,6.1H92Q91.91,103.23,91.91,104.12Zm3.86-5.39a1.65,1.65,0,0,0-1.44-1.42,1.89,1.89,0,0,0-1.63,1.22,9.52,9.52,0,0,0-.8,3.78h4.31A10.77,10.77,0,0,0,95.77,98.73Z" transform="translate(0 -6.46)"/><path class="cls-2" d="M103.71,109.75a2.87,2.87,0,0,0,2.53,1.34,2,2,0,0,0,1.38-.49,1.83,1.83,0,0,0,.57-1.47,2.73,2.73,0,0,0-.34-1.37,4.25,4.25,0,0,0-.87-1.07q-0.52-.47-1.57-1.29-1.28-1-1.91-1.63a5.7,5.7,0,0,1-1.09-1.4,3.7,3.7,0,0,1-.46-1.85,3.31,3.31,0,0,1,.64-2,4,4,0,0,1,1.73-1.3,6.21,6.21,0,0,1,2.36-.44,6.84,6.84,0,0,1,1.92.26,5,5,0,0,1,1.37.59,0.87,0.87,0,0,0,.48.19q0.51,0,.64-1h0.6q-0.11,1.38-.11,4.84H111a6.93,6.93,0,0,0-1.08-3,2.77,2.77,0,0,0-2.44-1.23,1.93,1.93,0,0,0-1.34.47,1.65,1.65,0,0,0-.52,1.29,2.28,2.28,0,0,0,.62,1.6,9.34,9.34,0,0,0,1.49,1.29q0.87,0.62,1.28.93a20.76,20.76,0,0,1,1.79,1.48,5.4,5.4,0,0,1,1.08,1.43,3.91,3.91,0,0,1,.42,1.83,3.43,3.43,0,0,1-.71,2.14,4.55,4.55,0,0,1-1.9,1.43,6.68,6.68,0,0,1-2.62.5,5.37,5.37,0,0,1-2.55-.58,10.88,10.88,0,0,0-1.29-.58l-0.13,0q-0.44,0-.64,1h-0.6q0.11-1.57.11-5.49h0.6A8.42,8.42,0,0,0,103.71,109.75Z" transform="translate(0 -6.46)"/><path class="cls-2" d="M119.86,110a1.08,1.08,0,0,0,.55.6,2.5,2.5,0,0,0,1,.17v0.58q-2.74-.11-3.65-0.11t-3.83.11v-0.58a2.55,2.55,0,0,0,1-.17,1.05,1.05,0,0,0,.55-0.6,3.39,3.39,0,0,0,.17-1.2V100.1a3.37,3.37,0,0,0-.39-1.85,1.54,1.54,0,0,0-1.37-.57V97.11q0.87,0.08,1.71.08a17.81,17.81,0,0,0,4-.38v12A3.26,3.26,0,0,0,119.86,110Zm-0.5-19.4a2.11,2.11,0,0,1,0,3.1,3.25,3.25,0,0,1-3.66,0,2.13,2.13,0,0,1,0-3.1A3.25,3.25,0,0,1,119.36,90.58Z" transform="translate(0 -6.46)"/><path class="cls-2" d="M131.48,97.14v0.55h-3.25v11.1a1.78,1.78,0,0,0,.3,1.16,1.14,1.14,0,0,0,.91.34q1.17,0,1.87-1.65l0.47,0.26a3.79,3.79,0,0,1-3.76,2.83,3.73,3.73,0,0,1-2.75-.94,2.89,2.89,0,0,1-.79-1.43,10.78,10.78,0,0,1-.21-2.4V97.69H122V97.14h2.31V93.48a8.43,8.43,0,0,0,4-.89v4.54h3.25Z" transform="translate(0 -6.46)"/><path class="cls-2" d="M139.39,97.93a2.08,2.08,0,0,0-1.7-.66,3.57,3.57,0,0,0-1.07.17,2.2,2.2,0,0,0-.89.5,2.47,2.47,0,0,1,1.2.8,2.13,2.13,0,0,1,.43,1.36,1.9,1.9,0,0,1-.28,1,1.93,1.93,0,0,1-.79.71,2.53,2.53,0,0,1-1.17.26,1.79,1.79,0,0,1-1.42-.6,2.22,2.22,0,0,1-.53-1.52,2.63,2.63,0,0,1,1.53-2.31,8.59,8.59,0,0,1,4.19-.93,5.43,5.43,0,0,1,4,1.24,2.93,2.93,0,0,1,.78,1.44,11.11,11.11,0,0,1,.2,2.4v7.48a2.46,2.46,0,0,0,.13.95,0.45,0.45,0,0,0,.45.28,1.72,1.72,0,0,0,1-.47l0.28,0.47a4.17,4.17,0,0,1-1.37.77,5.74,5.74,0,0,1-1.77.24,2.77,2.77,0,0,1-2-.62,2.18,2.18,0,0,1-.62-1.61,4.34,4.34,0,0,1-1.76,1.67,5,5,0,0,1-2.32.56,3.7,3.7,0,0,1-2.52-.83,2.89,2.89,0,0,1-.95-2.3,3.22,3.22,0,0,1,.94-2.38,8,8,0,0,1,2.92-1.67l1.4-.53a5.62,5.62,0,0,0,1.71-.92,1.38,1.38,0,0,0,.52-1V99.73A2.74,2.74,0,0,0,139.39,97.93Zm0,5.68a12.16,12.16,0,0,1-1.13.77,5,5,0,0,0-1.37,1.36,3.38,3.38,0,0,0-.5,1.89,2.36,2.36,0,0,0,.47,1.6,1.57,1.57,0,0,0,1.24.53,2.24,2.24,0,0,0,1.87-1.13V103A2.34,2.34,0,0,1,139.36,103.6Z" transform="translate(0 -6.46)"/><path class="cls-2" d="M153.8,97.46a3.66,3.66,0,0,1,2.24-.73,2.53,2.53,0,0,1,1.4.36,2.22,2.22,0,0,1,.83.93,2.85,2.85,0,0,1,.27,1.23,2.37,2.37,0,0,1-.59,1.67,2,2,0,0,1-1.56.64,2.17,2.17,0,0,1-1.48-.48,1.62,1.62,0,0,1-.54-1.28,2.51,2.51,0,0,1,1.21-2.15,1.49,1.49,0,0,0-.34,0,1.64,1.64,0,0,0-.43.07,2.34,2.34,0,0,0-1.28.67,4,4,0,0,0-.91,1.34,3.89,3.89,0,0,0-.33,1.52v7.29a2.14,2.14,0,0,0,.62,1.77,3.18,3.18,0,0,0,2,.49v0.58q-3.44-.11-4.38-0.11t-3.94.11v-0.58a2.55,2.55,0,0,0,1-.17,1.05,1.05,0,0,0,.55-0.6,3.39,3.39,0,0,0,.17-1.2V100.1a3.37,3.37,0,0,0-.39-1.85,1.54,1.54,0,0,0-1.37-.57V97.11q0.87,0.08,1.71.08a17.81,17.81,0,0,0,4-.38v2.55A4.73,4.73,0,0,1,153.8,97.46Z" transform="translate(0 -6.46)"/><path class="cls-2" d="M165.31,110a1.08,1.08,0,0,0,.55.6,2.5,2.5,0,0,0,1,.17v0.58q-2.74-.11-3.65-0.11t-3.83.11v-0.58a2.55,2.55,0,0,0,1-.17A1.05,1.05,0,0,0,161,110a3.39,3.39,0,0,0,.17-1.2V100.1a3.37,3.37,0,0,0-.39-1.85,1.54,1.54,0,0,0-1.37-.57V97.11q0.87,0.08,1.71.08a17.81,17.81,0,0,0,4-.38v12A3.26,3.26,0,0,0,165.31,110Zm-0.5-19.4a2.11,2.11,0,0,1,0,3.1,3.25,3.25,0,0,1-3.66,0,2.13,2.13,0,0,1,0-3.1A3.25,3.25,0,0,1,164.81,90.58Z" transform="translate(0 -6.46)"/><path class="cls-2" d="M180.12,98.53q1.79,1.8,1.79,5.71t-1.79,5.69a7.7,7.7,0,0,1-9.88,0q-1.8-1.79-1.8-5.69t1.8-5.7A7.67,7.67,0,0,1,180.12,98.53ZM173.3,99a14.67,14.67,0,0,0-.71,5.25,14.5,14.5,0,0,0,.71,5.23q0.71,1.71,1.89,1.71t1.89-1.7a14.75,14.75,0,0,0,.69-5.23,14.92,14.92,0,0,0-.69-5.26q-0.69-1.71-1.89-1.71T173.3,99Z" transform="translate(0 -6.46)"/><path class="cls-3" d="M34.88,149.92a0.84,0.84,0,0,0,.51.24v0.31q-0.92,0-2.32,0-1.57,0-2.32,0v-0.31a2.26,2.26,0,0,0,.82-0.14,0.43,0.43,0,0,0,.25-0.42,2.34,2.34,0,0,0-.19-0.72l-0.92-2.51H27.39L27,147.43a5,5,0,0,0-.42,1.7,0.88,0.88,0,0,0,.34.79,2,2,0,0,0,1,.25v0.31q-1,0-1.9,0-0.7,0-1.16,0v-0.31a2.15,2.15,0,0,0,1.31-1.6l3.49-8.94,0.53,0,0.53,0,3.71,9.57A1.94,1.94,0,0,0,34.88,149.92Zm-5.79-8-1.58,4.13h3.1Z" transform="translate(0 -6.46)"/><path class="cls-3" d="M41.84,149.44a3,3,0,0,1-1,.9,2.92,2.92,0,0,1-1.45.35,3.68,3.68,0,0,1-1.82-.45,3.13,3.13,0,0,1-1.27-1.37,5.1,5.1,0,0,1-.47-2.31,4.94,4.94,0,0,1,.49-2.29,3.36,3.36,0,0,1,1.34-1.43,3.92,3.92,0,0,1,2-.48,4.46,4.46,0,0,1,1.07.12,3,3,0,0,1,.84.33,1.82,1.82,0,0,1,.62.62,1.57,1.57,0,0,1,.22.82,1.19,1.19,0,0,1-.34.88,1.31,1.31,0,0,1-1.72,0,1.09,1.09,0,0,1-.32-0.82,1.18,1.18,0,0,1,.29-0.8,1.45,1.45,0,0,1,.72-0.46,0.82,0.82,0,0,0-.37-0.27,1.46,1.46,0,0,0-.55-0.1,1.39,1.39,0,0,0-1.06.47,3,3,0,0,0-.66,1.28,7.09,7.09,0,0,0-.22,1.87,4.81,4.81,0,0,0,.28,1.81,2,2,0,0,0,.74,1,1.84,1.84,0,0,0,1,.29,2.29,2.29,0,0,0,1.05-.27,2.52,2.52,0,0,0,1-1l0.25,0.09A4.15,4.15,0,0,1,41.84,149.44Z" transform="translate(0 -6.46)"/><path class="cls-3" d="M49.43,149.44a3,3,0,0,1-1,.9,2.92,2.92,0,0,1-1.45.35,3.68,3.68,0,0,1-1.82-.45,3.13,3.13,0,0,1-1.27-1.37,5.1,5.1,0,0,1-.47-2.31,4.94,4.94,0,0,1,.49-2.29,3.36,3.36,0,0,1,1.34-1.43,3.92,3.92,0,0,1,2-.48,4.46,4.46,0,0,1,1.07.12,3,3,0,0,1,.84.33,1.82,1.82,0,0,1,.62.62,1.57,1.57,0,0,1,.22.82,1.19,1.19,0,0,1-.34.88,1.31,1.31,0,0,1-1.72,0,1.09,1.09,0,0,1-.32-0.82,1.18,1.18,0,0,1,.29-0.8,1.45,1.45,0,0,1,.72-0.46,0.82,0.82,0,0,0-.37-0.27,1.46,1.46,0,0,0-.55-0.1,1.39,1.39,0,0,0-1.06.47,3,3,0,0,0-.66,1.28,7.09,7.09,0,0,0-.22,1.87,4.81,4.81,0,0,0,.28,1.81,2,2,0,0,0,.74,1,1.84,1.84,0,0,0,1,.29,2.29,2.29,0,0,0,1.05-.27,2.52,2.52,0,0,0,1-1L50,148.27A4.15,4.15,0,0,1,49.43,149.44Z" transform="translate(0 -6.46)"/><path class="cls-3" d="M53.31,146.46a4.33,4.33,0,0,0,.28,1.68,2.17,2.17,0,0,0,.73,1,1.68,1.68,0,0,0,1,.31,2.3,2.3,0,0,0,2-1.22l0.27,0.09a3.79,3.79,0,0,1-.6,1.17,3.16,3.16,0,0,1-1,.88,2.93,2.93,0,0,1-1.42.34,3.7,3.7,0,0,1-1.85-.45,3,3,0,0,1-1.24-1.36,6,6,0,0,1,0-4.61,3.28,3.28,0,0,1,1.32-1.43,3.88,3.88,0,0,1,1.95-.48q2.87,0,2.87,3.39H53.34Q53.31,146,53.31,146.46Zm2.15-3a0.92,0.92,0,0,0-.8-0.79,1.05,1.05,0,0,0-.91.68,5.3,5.3,0,0,0-.44,2.1h2.4A6,6,0,0,0,55.46,143.47Z" transform="translate(0 -6.46)"/><path class="cls-3" d="M66.25,149.82a0.85,0.85,0,0,0,.76.32v0.32q-0.48,0-.95,0a9.89,9.89,0,0,0-2.23.21v-1.31a2,2,0,0,1-2,1.38,3,3,0,0,1-1.64-.45,2.92,2.92,0,0,1-1.1-1.4,6.1,6.1,0,0,1-.38-2.36,5.23,5.23,0,0,1,.43-2.27,3.11,3.11,0,0,1,1.21-1.39,3.38,3.38,0,0,1,1.77-.46,2.28,2.28,0,0,1,1.69.57v-2.6a1.84,1.84,0,0,0-.22-1,0.86,0.86,0,0,0-.76-0.32v-0.32q0.48,0,.95,0A9.62,9.62,0,0,0,66,138.5v10.29A1.89,1.89,0,0,0,66.25,149.82Zm-3.53-7a1.37,1.37,0,0,0-1.25.93,6.73,6.73,0,0,0-.43,2.78Q61,150,62.48,150a1.24,1.24,0,0,0,.62-0.16,1.39,1.39,0,0,0,.49-0.47,1.72,1.72,0,0,0,.25-0.72v-5.35A1.31,1.31,0,0,0,62.72,142.8Z" transform="translate(0 -6.46)"/><path class="cls-3" d="M70.16,146.46a4.33,4.33,0,0,0,.28,1.68,2.17,2.17,0,0,0,.73,1,1.68,1.68,0,0,0,1,.31,2.3,2.3,0,0,0,2-1.22l0.27,0.09a3.79,3.79,0,0,1-.6,1.17,3.16,3.16,0,0,1-1,.88,2.93,2.93,0,0,1-1.42.34,3.7,3.7,0,0,1-1.85-.45,3,3,0,0,1-1.24-1.36,6,6,0,0,1,0-4.61,3.28,3.28,0,0,1,1.32-1.43,3.88,3.88,0,0,1,1.95-.48q2.87,0,2.87,3.39H70.18Q70.16,146,70.16,146.46Zm2.15-3a0.92,0.92,0,0,0-.8-0.79,1.05,1.05,0,0,0-.91.68,5.3,5.3,0,0,0-.44,2.1h2.4A6,6,0,0,0,72.3,143.47Z" transform="translate(0 -6.46)"/><path class="cls-3" d="M82.84,143a1.15,1.15,0,0,0-.94-0.37,2,2,0,0,0-.6.09,1.22,1.22,0,0,0-.49.28,1.37,1.37,0,0,1,.66.44,1.18,1.18,0,0,1,.24.76,1.06,1.06,0,0,1-.15.56,1.07,1.07,0,0,1-.44.4,1.41,1.41,0,0,1-.65.15,1,1,0,0,1-.79-0.34,1.23,1.23,0,0,1-.29-0.84,1.46,1.46,0,0,1,.85-1.28,4.77,4.77,0,0,1,2.33-.52,3,3,0,0,1,2.23.69,1.63,1.63,0,0,1,.43.8,6.16,6.16,0,0,1,.11,1.34v4.16a1.37,1.37,0,0,0,.07.53,0.25,0.25,0,0,0,.25.15,1,1,0,0,0,.57-0.26L86.39,150a2.32,2.32,0,0,1-.76.43,3.19,3.19,0,0,1-1,.13,1.54,1.54,0,0,1-1.12-.34,1.21,1.21,0,0,1-.34-0.9,2.42,2.42,0,0,1-1,.93,2.8,2.8,0,0,1-1.29.31,2.05,2.05,0,0,1-1.4-.46,1.61,1.61,0,0,1-.53-1.28,1.79,1.79,0,0,1,.52-1.32,4.46,4.46,0,0,1,1.62-.93l0.78-.29a3.14,3.14,0,0,0,.95-0.51,0.77,0.77,0,0,0,.29-0.57V144A1.52,1.52,0,0,0,82.84,143Zm0,3.15a6.72,6.72,0,0,1-.63.43,2.78,2.78,0,0,0-.76.76,1.88,1.88,0,0,0-.28,1,1.31,1.31,0,0,0,.26.89,0.87,0.87,0,0,0,.69.29,1.25,1.25,0,0,0,1-.63v-3.13A1.31,1.31,0,0,1,82.83,146.18Z" transform="translate(0 -6.46)"/><path class="cls-3" d="M90,149.72a0.58,0.58,0,0,0,.31.34,1.41,1.41,0,0,0,.58.1v0.32l-2-.06-2.11.06v-0.32a1.39,1.39,0,0,0,.57-0.1,0.6,0.6,0,0,0,.31-0.34,1.82,1.82,0,0,0,.1-0.66v-8.72a1.84,1.84,0,0,0-.22-1,0.86,0.86,0,0,0-.76-0.32v-0.32q0.49,0,.95,0a9.61,9.61,0,0,0,2.23-.22v10.55A1.89,1.89,0,0,0,90,149.72Z" transform="translate(0 -6.46)"/><path class="cls-3" d="M101.34,149.44a3,3,0,0,1-1,.9,2.92,2.92,0,0,1-1.45.35,3.68,3.68,0,0,1-1.82-.45,3.13,3.13,0,0,1-1.27-1.37,5.1,5.1,0,0,1-.47-2.31,4.94,4.94,0,0,1,.49-2.29,3.36,3.36,0,0,1,1.34-1.43,3.92,3.92,0,0,1,2-.48,4.46,4.46,0,0,1,1.07.12,3,3,0,0,1,.84.33,1.82,1.82,0,0,1,.62.62,1.57,1.57,0,0,1,.22.82,1.19,1.19,0,0,1-.34.88,1.31,1.31,0,0,1-1.72,0,1.09,1.09,0,0,1-.32-0.82,1.18,1.18,0,0,1,.29-0.8,1.45,1.45,0,0,1,.72-0.46,0.82,0.82,0,0,0-.37-0.27,1.46,1.46,0,0,0-.55-0.1,1.39,1.39,0,0,0-1.06.47,3,3,0,0,0-.66,1.28,7.09,7.09,0,0,0-.22,1.87,4.81,4.81,0,0,0,.28,1.81,2,2,0,0,0,.74,1,1.84,1.84,0,0,0,1,.29,2.29,2.29,0,0,0,1.05-.27,2.52,2.52,0,0,0,1-1l0.25,0.09A4.15,4.15,0,0,1,101.34,149.44Z" transform="translate(0 -6.46)"/><path class="cls-3" d="M106.65,143a1.15,1.15,0,0,0-.94-0.37,2,2,0,0,0-.6.09,1.22,1.22,0,0,0-.49.28,1.37,1.37,0,0,1,.66.44,1.18,1.18,0,0,1,.24.76,1.06,1.06,0,0,1-.15.56,1.07,1.07,0,0,1-.44.4,1.41,1.41,0,0,1-.65.15,1,1,0,0,1-.79-0.34,1.23,1.23,0,0,1-.29-0.84,1.46,1.46,0,0,1,.85-1.28,4.77,4.77,0,0,1,2.33-.52,3,3,0,0,1,2.23.69,1.63,1.63,0,0,1,.43.8,6.16,6.16,0,0,1,.11,1.34v4.16a1.37,1.37,0,0,0,.07.53,0.25,0.25,0,0,0,.25.15,1,1,0,0,0,.57-0.26L110.2,150a2.32,2.32,0,0,1-.76.43,3.19,3.19,0,0,1-1,.13,1.54,1.54,0,0,1-1.12-.34,1.21,1.21,0,0,1-.34-0.9,2.42,2.42,0,0,1-1,.93,2.8,2.8,0,0,1-1.29.31,2.05,2.05,0,0,1-1.4-.46,1.61,1.61,0,0,1-.53-1.28,1.79,1.79,0,0,1,.52-1.32,4.46,4.46,0,0,1,1.62-.93l0.78-.29a3.14,3.14,0,0,0,.95-0.51,0.77,0.77,0,0,0,.29-0.57V144A1.52,1.52,0,0,0,106.65,143Zm0,3.15a6.72,6.72,0,0,1-.63.43,2.78,2.78,0,0,0-.76.76,1.88,1.88,0,0,0-.28,1,1.31,1.31,0,0,0,.26.89,0.87,0.87,0,0,0,.69.29,1.25,1.25,0,0,0,1-.63v-3.13A1.31,1.31,0,0,1,106.64,146.18Z" transform="translate(0 -6.46)"/><path class="cls-3" d="M115.56,142.58v0.31h-1.81v6.16a1,1,0,0,0,.16.65,0.63,0.63,0,0,0,.51.19,1.2,1.2,0,0,0,1-.92l0.26,0.14a2.1,2.1,0,0,1-2.09,1.57,2.07,2.07,0,0,1-1.53-.52,1.61,1.61,0,0,1-.44-0.79,6,6,0,0,1-.12-1.33v-5.15h-1.28v-0.31h1.28v-2a4.68,4.68,0,0,0,2.2-.49v2.52h1.81Z" transform="translate(0 -6.46)"/><path class="cls-3" d="M120,143a1.15,1.15,0,0,0-.94-0.37,2,2,0,0,0-.6.09,1.22,1.22,0,0,0-.49.28,1.37,1.37,0,0,1,.66.44,1.18,1.18,0,0,1,.24.76,1.06,1.06,0,0,1-.15.56,1.07,1.07,0,0,1-.44.4,1.41,1.41,0,0,1-.65.15,1,1,0,0,1-.79-0.34,1.23,1.23,0,0,1-.29-0.84,1.46,1.46,0,0,1,.85-1.28,4.77,4.77,0,0,1,2.33-.52,3,3,0,0,1,2.23.69,1.63,1.63,0,0,1,.43.8,6.16,6.16,0,0,1,.11,1.34v4.16a1.37,1.37,0,0,0,.07.53,0.25,0.25,0,0,0,.25.15,1,1,0,0,0,.57-0.26L123.5,150a2.32,2.32,0,0,1-.76.43,3.19,3.19,0,0,1-1,.13,1.54,1.54,0,0,1-1.12-.34,1.21,1.21,0,0,1-.34-0.9,2.42,2.42,0,0,1-1,.93,2.8,2.8,0,0,1-1.29.31,2.05,2.05,0,0,1-1.4-.46,1.61,1.61,0,0,1-.53-1.28,1.79,1.79,0,0,1,.52-1.32,4.46,4.46,0,0,1,1.62-.93l0.78-.29a3.14,3.14,0,0,0,.95-0.51,0.77,0.77,0,0,0,.29-0.57V144A1.52,1.52,0,0,0,120,143Zm0,3.15a6.72,6.72,0,0,1-.63.43,2.78,2.78,0,0,0-.76.76,1.88,1.88,0,0,0-.28,1,1.31,1.31,0,0,0,.26.89,0.87,0.87,0,0,0,.69.29,1.25,1.25,0,0,0,1-.63v-3.13A1.31,1.31,0,0,1,119.94,146.18Zm-0.65-6.46q0.26-.66.4-1a2.11,2.11,0,0,1,.36-0.58,0.86,0.86,0,0,1,.32-0.27,0.88,0.88,0,0,1,.39-0.09,0.79,0.79,0,0,1,.54.19,0.71,0.71,0,0,1,.28.59,1,1,0,0,1-.23.62,3.57,3.57,0,0,1-.71.63l-0.9.65a12.78,12.78,0,0,0-1,.83l-0.16-.13A12.33,12.33,0,0,0,119.29,139.72Z" transform="translate(0 -6.46)"/><path class="cls-3" d="M127.15,149.72a0.58,0.58,0,0,0,.31.34,1.41,1.41,0,0,0,.58.1v0.32l-2-.06-2.11.06v-0.32a1.39,1.39,0,0,0,.57-0.1,0.6,0.6,0,0,0,.31-0.34,1.82,1.82,0,0,0,.1-0.66v-8.72a1.84,1.84,0,0,0-.22-1,0.86,0.86,0,0,0-.76-0.32v-0.32q0.49,0,.95,0a9.61,9.61,0,0,0,2.23-.22v10.55A1.89,1.89,0,0,0,127.15,149.72Z" transform="translate(0 -6.46)"/><path class="cls-3" d="M135.24,143.36a5.53,5.53,0,0,1,0,6.33,4.28,4.28,0,0,1-5.49,0,5.51,5.51,0,0,1,0-6.33A4.26,4.26,0,0,1,135.24,143.36Zm-3.79.25a8.16,8.16,0,0,0-.39,2.92,8.07,8.07,0,0,0,.39,2.9,1.05,1.05,0,0,0,2.1,0,8.2,8.2,0,0,0,.38-2.91,8.29,8.29,0,0,0-.38-2.92A1.05,1.05,0,0,0,131.45,143.61Z" transform="translate(0 -6.46)"/><path class="cls-3" d="M144.36,148.9a1.4,1.4,0,0,1,.57,1.25,2.69,2.69,0,0,1-.49,1.52,3.56,3.56,0,0,1-1.49,1.21,5.71,5.71,0,0,1-2.44.47,8.5,8.5,0,0,1-1.88-.18,2.85,2.85,0,0,1-1.13-.47,0.86,0.86,0,0,1-.37-0.68,0.68,0.68,0,0,1,.31-0.61,4.44,4.44,0,0,1,1-.43,3.79,3.79,0,0,0,1-.43h-0.36a2.33,2.33,0,0,1-1.17-.31,1.17,1.17,0,0,1-.54-1.11,1.71,1.71,0,0,1,.18-0.79,2.1,2.1,0,0,1,.6-0.68,6.52,6.52,0,0,1,1.14-.67,2.6,2.6,0,0,1-1.22-.82,2.14,2.14,0,0,1-.44-1.38,2,2,0,0,1,.9-1.82,4.19,4.19,0,0,1,2.38-.61,5.81,5.81,0,0,1,1.13.1,2.84,2.84,0,0,1,.06-0.77,1.75,1.75,0,0,1,.43-1,1.32,1.32,0,0,1,1-.38,1.23,1.23,0,0,1,.8.26,0.83,0.83,0,0,1,.32.68,0.79,0.79,0,0,1-.3.64,1.15,1.15,0,0,1-.76.25,1.1,1.1,0,0,1-.72-0.22,1.37,1.37,0,0,1-.4-0.64,2.08,2.08,0,0,0-.23.78s0,0.12,0,.22,0,0.19,0,.25a2.78,2.78,0,0,1,1.43.8,2.12,2.12,0,0,1,.52,1.47,2.15,2.15,0,0,1-.42,1.36,2.49,2.49,0,0,1-1.16.81,5,5,0,0,1-1.7.26,5.44,5.44,0,0,1-1.32-.15,3.33,3.33,0,0,0-.65.46,0.65,0.65,0,0,0-.21.48,0.5,0.5,0,0,0,.61.51h3.53A2.62,2.62,0,0,1,144.36,148.9Zm-5,2.23a1.75,1.75,0,0,0-.14.63,1.12,1.12,0,0,0,.48,1,2.09,2.09,0,0,0,1.24.34,2.91,2.91,0,0,0,1.15-.23,2,2,0,0,0,.85-0.66,1.66,1.66,0,0,0,.32-1,0.59,0.59,0,0,0-.19-0.48,1.14,1.14,0,0,0-.69-0.16h-2.62A1.61,1.61,0,0,0,139.33,151.13Zm0.82-8a5.43,5.43,0,0,0,0,3.33,0.84,0.84,0,0,0,1.53,0,5.5,5.5,0,0,0,0-3.33A0.84,0.84,0,0,0,140.15,143.12Z" transform="translate(0 -6.46)"/><path class="cls-3" d="M152.17,143.36a5.53,5.53,0,0,1,0,6.33,4.28,4.28,0,0,1-5.49,0,5.51,5.51,0,0,1,0-6.33A4.26,4.26,0,0,1,152.17,143.36Zm-3.79.25a8.16,8.16,0,0,0-.39,2.92,8.07,8.07,0,0,0,.39,2.9,1.05,1.05,0,0,0,2.1,0,8.2,8.2,0,0,0,.38-2.91,8.29,8.29,0,0,0-.38-2.92A1.05,1.05,0,0,0,148.38,143.61Z" transform="translate(0 -6.46)"/><path class="cls-3" d="M33.28,168.17a0.86,0.86,0,0,0,.76.32v0.32q-0.48,0-.95,0a9.61,9.61,0,0,0-2.23.22V167.6A2.5,2.5,0,0,1,28.4,169a2.1,2.1,0,0,1-1.66-.6,1.68,1.68,0,0,1-.36-0.75,5.67,5.67,0,0,1-.11-1.23v-3.87a1.85,1.85,0,0,0-.22-1,0.85,0.85,0,0,0-.76-0.32v-0.32q0.49,0,.95,0a10,10,0,0,0,2.23-.21v6.33a1.93,1.93,0,0,0,.19,1,0.76,0.76,0,0,0,.72.32,1.28,1.28,0,0,0,.74-0.24,1.66,1.66,0,0,0,.54-0.64,2,2,0,0,0,.2-0.9v-4a1.85,1.85,0,0,0-.22-1,0.85,0.85,0,0,0-.76-0.32v-0.32q0.49,0,.95,0a10,10,0,0,0,2.23-.21v6.4A1.84,1.84,0,0,0,33.28,168.17Z" transform="translate(0 -6.46)"/><path class="cls-3" d="M40.4,160.7a3,3,0,0,1,1,.15,1.58,1.58,0,0,1,.65.44,1.76,1.76,0,0,1,.37.75,5.47,5.47,0,0,1,.11,1.24v4.11a1.81,1.81,0,0,0,.1.66,0.6,0.6,0,0,0,.31.34,1.38,1.38,0,0,0,.57.1v0.32l-2-.06-2,.06v-0.32a1,1,0,0,0,.49-0.1,0.56,0.56,0,0,0,.26-0.34,2.22,2.22,0,0,0,.08-0.66v-4.75a1.78,1.78,0,0,0-.21-0.95,0.81,0.81,0,0,0-.74-0.32,1.35,1.35,0,0,0-.76.23,1.6,1.6,0,0,0-.55.64,2,2,0,0,0-.2.9v4.25a2.12,2.12,0,0,0,.08.66,0.57,0.57,0,0,0,.26.34,1,1,0,0,0,.48.1v0.32q-1.4-.06-1.9-0.06l-2.11.06v-0.32a1.41,1.41,0,0,0,.58-0.1,0.58,0.58,0,0,0,.31-0.34,1.89,1.89,0,0,0,.09-0.66v-4.82a1.87,1.87,0,0,0-.22-1,0.86,0.86,0,0,0-.76-0.32v-0.32q0.48,0,.95,0a9.91,9.91,0,0,0,2.23-.21v1.37A2.54,2.54,0,0,1,40.4,160.7Z" transform="translate(0 -6.46)"/><path class="cls-3" d="M47.37,168.06a0.6,0.6,0,0,0,.31.34,1.38,1.38,0,0,0,.57.1v0.32l-2-.06-2.13.06v-0.32a1.41,1.41,0,0,0,.58-0.1,0.58,0.58,0,0,0,.31-0.34,1.89,1.89,0,0,0,.09-0.66v-4.82a1.87,1.87,0,0,0-.22-1,0.86,0.86,0,0,0-.76-0.32v-0.32q0.48,0,.95,0a9.91,9.91,0,0,0,2.23-.21v6.65A1.82,1.82,0,0,0,47.37,168.06Zm-0.28-10.78a1.17,1.17,0,0,1,0,1.72,1.81,1.81,0,0,1-2,0,1.18,1.18,0,0,1,0-1.72A1.81,1.81,0,0,1,47.09,157.28Z" transform="translate(0 -6.46)"/><path class="cls-3" d="M55.06,161a11.06,11.06,0,0,0,1.17,0v0.31a1.2,1.2,0,0,0-.57.38,2.9,2.9,0,0,0-.48.93l-2.23,6.31-0.5,0-0.49,0-2.72-6.75a1.07,1.07,0,0,0-.88-0.86v-0.32q1.07,0.07,2.16.07t2-.07v0.32a3.92,3.92,0,0,0-.63,0,0.38,0.38,0,0,0-.29.22,0.84,0.84,0,0,0,0,.57l1.75,4.64,1.1-3a3.84,3.84,0,0,0,.25-1.23,1.08,1.08,0,0,0-1.12-1.22v-0.31Q54.31,161,55.06,161Z" transform="translate(0 -6.46)"/><path class="cls-3" d="M58.88,164.8a4.33,4.33,0,0,0,.28,1.68,2.17,2.17,0,0,0,.73,1,1.68,1.68,0,0,0,1,.31,2.3,2.3,0,0,0,2-1.22l0.27,0.09a3.79,3.79,0,0,1-.6,1.17,3.16,3.16,0,0,1-1,.88,2.93,2.93,0,0,1-1.42.34,3.7,3.7,0,0,1-1.85-.45A3,3,0,0,1,57,167.22a6,6,0,0,1,0-4.61,3.28,3.28,0,0,1,1.32-1.43,3.88,3.88,0,0,1,1.95-.48q2.87,0,2.87,3.39H58.9Q58.88,164.31,58.88,164.8Zm2.15-3a0.92,0.92,0,0,0-.8-0.79,1.05,1.05,0,0,0-.91.68,5.3,5.3,0,0,0-.44,2.1h2.4A6,6,0,0,0,61,161.81Z" transform="translate(0 -6.46)"/><path class="cls-3" d="M68,161.11a2,2,0,0,1,1.24-.41,1.41,1.41,0,0,1,.78.2,1.24,1.24,0,0,1,.46.52,1.58,1.58,0,0,1,.15.68,1.32,1.32,0,0,1-.33.93,1.12,1.12,0,0,1-.87.36,1.21,1.21,0,0,1-.82-0.26,0.9,0.9,0,0,1-.3-0.71,1.4,1.4,0,0,1,.67-1.19l-0.19,0a0.92,0.92,0,0,0-.24,0,1.3,1.3,0,0,0-.71.37,2.22,2.22,0,0,0-.5.74,2.16,2.16,0,0,0-.18.84v4.05a1.19,1.19,0,0,0,.34,1,1.77,1.77,0,0,0,1.1.27v0.32l-2.43-.06-2.19.06v-0.32a1.41,1.41,0,0,0,.58-0.1,0.58,0.58,0,0,0,.31-0.34,1.89,1.89,0,0,0,.09-0.66v-4.82a1.87,1.87,0,0,0-.22-1,0.86,0.86,0,0,0-.76-0.32v-0.32q0.48,0,.95,0a9.91,9.91,0,0,0,2.23-.21v1.42A2.62,2.62,0,0,1,68,161.11Z" transform="translate(0 -6.46)"/><path class="cls-3" d="M72.48,167.93a1.59,1.59,0,0,0,1.41.75,1.14,1.14,0,0,0,.77-0.27,1,1,0,0,0,.32-0.82,1.52,1.52,0,0,0-.19-0.76,2.36,2.36,0,0,0-.48-0.6Q74,166,73.43,165.51t-1.06-.9a3.16,3.16,0,0,1-.61-0.78,2.05,2.05,0,0,1-.25-1,1.84,1.84,0,0,1,.36-1.13,2.22,2.22,0,0,1,1-.72,3.44,3.44,0,0,1,1.31-.25,3.79,3.79,0,0,1,1.07.14,2.76,2.76,0,0,1,.76.33,0.48,0.48,0,0,0,.27.1q0.28,0,.36-0.56h0.34q-0.06.77-.06,2.69H76.53a3.85,3.85,0,0,0-.6-1.68,1.54,1.54,0,0,0-1.35-.68,1.07,1.07,0,0,0-.75.26,0.91,0.91,0,0,0-.29.72,1.27,1.27,0,0,0,.34.89,5.16,5.16,0,0,0,.83.72l0.71,0.52a11.57,11.57,0,0,1,1,.82,3,3,0,0,1,.6.79,2.17,2.17,0,0,1,.23,1,1.91,1.91,0,0,1-.39,1.19,2.52,2.52,0,0,1-1.06.79,3.71,3.71,0,0,1-1.46.28,3,3,0,0,1-1.42-.32,6,6,0,0,0-.72-0.32l-0.07,0q-0.25,0-.36.54H71.44q0.06-.87.06-3.05h0.34A4.68,4.68,0,0,0,72.48,167.93Z" transform="translate(0 -6.46)"/><path class="cls-3" d="M81.46,168.06a0.6,0.6,0,0,0,.31.34,1.38,1.38,0,0,0,.57.1v0.32l-2-.06-2.13.06v-0.32a1.41,1.41,0,0,0,.58-0.1,0.58,0.58,0,0,0,.31-0.34,1.89,1.89,0,0,0,.09-0.66v-4.82a1.87,1.87,0,0,0-.22-1,0.86,0.86,0,0,0-.76-0.32v-0.32q0.48,0,.95,0a9.91,9.91,0,0,0,2.23-.21v6.65A1.82,1.82,0,0,0,81.46,168.06Zm-0.28-10.78a1.17,1.17,0,0,1,0,1.72,1.81,1.81,0,0,1-2,0,1.18,1.18,0,0,1,0-1.72A1.81,1.81,0,0,1,81.18,157.28Z" transform="translate(0 -6.46)"/><path class="cls-3" d="M87.91,160.92v0.31H86.11v6.16a1,1,0,0,0,.16.65,0.63,0.63,0,0,0,.51.19,1.2,1.2,0,0,0,1-.92l0.26,0.14A2.1,2.1,0,0,1,86,169a2.07,2.07,0,0,1-1.53-.52,1.61,1.61,0,0,1-.44-0.79,6,6,0,0,1-.12-1.33v-5.15H82.62v-0.31H83.9v-2a4.68,4.68,0,0,0,2.2-.49v2.52h1.81Z" transform="translate(0 -6.46)"/><path class="cls-3" d="M92.3,161.36a1.15,1.15,0,0,0-.94-0.37,2,2,0,0,0-.6.09,1.22,1.22,0,0,0-.49.28,1.37,1.37,0,0,1,.66.44,1.18,1.18,0,0,1,.24.76,1.06,1.06,0,0,1-.15.56,1.07,1.07,0,0,1-.44.4,1.41,1.41,0,0,1-.65.15,1,1,0,0,1-.79-0.34,1.23,1.23,0,0,1-.29-0.84,1.46,1.46,0,0,1,.85-1.28A4.77,4.77,0,0,1,92,160.7a3,3,0,0,1,2.23.69,1.63,1.63,0,0,1,.43.8,6.16,6.16,0,0,1,.11,1.34v4.16a1.37,1.37,0,0,0,.07.53,0.25,0.25,0,0,0,.25.15,1,1,0,0,0,.57-0.26l0.16,0.26a2.32,2.32,0,0,1-.76.43,3.19,3.19,0,0,1-1,.13,1.54,1.54,0,0,1-1.12-.34,1.21,1.21,0,0,1-.34-0.9,2.42,2.42,0,0,1-1,.93,2.8,2.8,0,0,1-1.29.31,2.05,2.05,0,0,1-1.4-.46,1.61,1.61,0,0,1-.53-1.28,1.79,1.79,0,0,1,.52-1.32,4.46,4.46,0,0,1,1.62-.93l0.78-.29a3.14,3.14,0,0,0,.95-0.51,0.77,0.77,0,0,0,.29-0.57v-1.19A1.52,1.52,0,0,0,92.3,161.36Zm0,3.15a6.72,6.72,0,0,1-.63.43,2.78,2.78,0,0,0-.76.76,1.88,1.88,0,0,0-.28,1,1.31,1.31,0,0,0,.26.89,0.87,0.87,0,0,0,.69.29,1.25,1.25,0,0,0,1-.63v-3.13A1.31,1.31,0,0,1,92.29,164.52Z" transform="translate(0 -6.46)"/><path class="cls-3" d="M100.31,161.11a2,2,0,0,1,1.24-.41,1.41,1.41,0,0,1,.78.2,1.24,1.24,0,0,1,.46.52,1.58,1.58,0,0,1,.15.68,1.32,1.32,0,0,1-.33.93,1.12,1.12,0,0,1-.87.36,1.21,1.21,0,0,1-.82-0.26,0.9,0.9,0,0,1-.3-0.71,1.4,1.4,0,0,1,.67-1.19l-0.19,0a0.92,0.92,0,0,0-.24,0,1.3,1.3,0,0,0-.71.37,2.22,2.22,0,0,0-.5.74,2.16,2.16,0,0,0-.18.84v4.05a1.19,1.19,0,0,0,.34,1,1.77,1.77,0,0,0,1.1.27v0.32l-2.43-.06-2.19.06v-0.32a1.41,1.41,0,0,0,.58-0.1,0.58,0.58,0,0,0,.31-0.34,1.89,1.89,0,0,0,.09-0.66v-4.82a1.87,1.87,0,0,0-.22-1,0.86,0.86,0,0,0-.76-0.32v-0.32q0.48,0,.95,0a9.91,9.91,0,0,0,2.23-.21v1.42A2.62,2.62,0,0,1,100.31,161.11Z" transform="translate(0 -6.46)"/><path class="cls-3" d="M106.7,168.06a0.6,0.6,0,0,0,.31.34,1.38,1.38,0,0,0,.57.1v0.32l-2-.06-2.13.06v-0.32a1.41,1.41,0,0,0,.58-0.1,0.58,0.58,0,0,0,.31-0.34,1.89,1.89,0,0,0,.09-0.66v-4.82a1.87,1.87,0,0,0-.22-1,0.86,0.86,0,0,0-.76-0.32v-0.32q0.48,0,.95,0a9.91,9.91,0,0,0,2.23-.21v6.65A1.82,1.82,0,0,0,106.7,168.06Zm-0.28-10.78a1.17,1.17,0,0,1,0,1.72,1.81,1.81,0,0,1-2,0,1.18,1.18,0,0,1,0-1.72A1.81,1.81,0,0,1,106.42,157.28Z" transform="translate(0 -6.46)"/><path class="cls-3" d="M114.93,161.7a5.53,5.53,0,0,1,0,6.33,4.28,4.28,0,0,1-5.49,0,5.51,5.51,0,0,1,0-6.33A4.26,4.26,0,0,1,114.93,161.7Zm-3.79.25a8.16,8.16,0,0,0-.39,2.92,8.07,8.07,0,0,0,.39,2.9,1.05,1.05,0,0,0,2.1,0,8.2,8.2,0,0,0,.38-2.91,8.29,8.29,0,0,0-.38-2.92A1.05,1.05,0,0,0,111.14,162Z" transform="translate(0 -6.46)"/><path class="cls-3" d="M124.17,167.1a2.31,2.31,0,0,0,.13.89,0.68,0.68,0,0,0,.46.38,4.23,4.23,0,0,0,1,.1v0.34l-2.8,0-2.41,0v-0.31a2.32,2.32,0,0,0,.74-0.12,0.55,0.55,0,0,0,.32-0.36,2.93,2.93,0,0,0,.09-0.84v-7.58a2.93,2.93,0,0,0-.09-0.84,0.55,0.55,0,0,0-.32-0.36,2.32,2.32,0,0,0-.74-0.12V158q0.77,0,2.32,0l1.36,0h1a6.37,6.37,0,0,1,2.34.38,3,3,0,0,1,1.43,1.06,2.7,2.7,0,0,1,.47,1.58,3.31,3.31,0,0,1-.43,1.61,3.23,3.23,0,0,1-1.45,1.29,6,6,0,0,1-2.7.52h-0.81v2.66Zm2.37-3.77a5.4,5.4,0,0,0,0-4.34,1.59,1.59,0,0,0-1.46-.7,1.32,1.32,0,0,0-.61.11,0.57,0.57,0,0,0-.27.38,3.53,3.53,0,0,0-.07.82v4.52h0.66A1.83,1.83,0,0,0,126.54,163.34Z" transform="translate(0 -6.46)"/><path class="cls-3" d="M132.51,164.8a4.33,4.33,0,0,0,.28,1.68,2.17,2.17,0,0,0,.73,1,1.68,1.68,0,0,0,1,.31,2.3,2.3,0,0,0,2-1.22l0.27,0.09a3.79,3.79,0,0,1-.6,1.17,3.16,3.16,0,0,1-1,.88,2.93,2.93,0,0,1-1.42.34,3.7,3.7,0,0,1-1.85-.45,3,3,0,0,1-1.24-1.36,6,6,0,0,1,0-4.61,3.28,3.28,0,0,1,1.32-1.43,3.88,3.88,0,0,1,1.95-.48q2.87,0,2.87,3.39h-4.29Q132.51,164.31,132.51,164.8Zm2.15-3a0.92,0.92,0,0,0-.8-0.79,1.05,1.05,0,0,0-.91.68,5.3,5.3,0,0,0-.44,2.1h2.4A6,6,0,0,0,134.66,161.81Z" transform="translate(0 -6.46)"/><path class="cls-3" d="M141.63,161.36a1.15,1.15,0,0,0-.94-0.37,2,2,0,0,0-.6.09,1.22,1.22,0,0,0-.49.28,1.37,1.37,0,0,1,.66.44,1.18,1.18,0,0,1,.24.76,1.06,1.06,0,0,1-.15.56,1.07,1.07,0,0,1-.44.4,1.41,1.41,0,0,1-.65.15,1,1,0,0,1-.79-0.34,1.23,1.23,0,0,1-.29-0.84,1.46,1.46,0,0,1,.85-1.28,4.77,4.77,0,0,1,2.33-.52,3,3,0,0,1,2.23.69,1.63,1.63,0,0,1,.43.8,6.16,6.16,0,0,1,.11,1.34v4.16a1.37,1.37,0,0,0,.07.53,0.25,0.25,0,0,0,.25.15,1,1,0,0,0,.57-0.26l0.16,0.26a2.32,2.32,0,0,1-.76.43,3.19,3.19,0,0,1-1,.13,1.54,1.54,0,0,1-1.12-.34,1.21,1.21,0,0,1-.34-0.9,2.42,2.42,0,0,1-1,.93,2.8,2.8,0,0,1-1.29.31,2.05,2.05,0,0,1-1.4-.46,1.61,1.61,0,0,1-.53-1.28,1.79,1.79,0,0,1,.52-1.32,4.46,4.46,0,0,1,1.62-.93l0.78-.29a3.14,3.14,0,0,0,.95-0.51,0.77,0.77,0,0,0,.29-0.57v-1.19A1.52,1.52,0,0,0,141.63,161.36Zm0,3.15a6.72,6.72,0,0,1-.63.43,2.78,2.78,0,0,0-.76.76,1.88,1.88,0,0,0-.28,1,1.31,1.31,0,0,0,.26.89,0.87,0.87,0,0,0,.69.29,1.25,1.25,0,0,0,1-.63v-3.13A1.31,1.31,0,0,1,141.62,164.52Z" transform="translate(0 -6.46)"/><path class="cls-3" d="M149.64,161.11a2,2,0,0,1,1.24-.41,1.41,1.41,0,0,1,.78.2,1.24,1.24,0,0,1,.46.52,1.58,1.58,0,0,1,.15.68,1.32,1.32,0,0,1-.33.93,1.12,1.12,0,0,1-.87.36,1.21,1.21,0,0,1-.82-0.26,0.9,0.9,0,0,1-.3-0.71,1.4,1.4,0,0,1,.67-1.19l-0.19,0a0.92,0.92,0,0,0-.24,0,1.3,1.3,0,0,0-.71.37,2.22,2.22,0,0,0-.5.74,2.16,2.16,0,0,0-.18.84v4.05a1.19,1.19,0,0,0,.34,1,1.77,1.77,0,0,0,1.1.27v0.32l-2.43-.06-2.19.06v-0.32a1.41,1.41,0,0,0,.58-0.1,0.58,0.58,0,0,0,.31-0.34,1.89,1.89,0,0,0,.09-0.66v-4.82a1.87,1.87,0,0,0-.22-1,0.86,0.86,0,0,0-.76-0.32v-0.32q0.48,0,.95,0a9.91,9.91,0,0,0,2.23-.21v1.42A2.62,2.62,0,0,1,149.64,161.11Z" transform="translate(0 -6.46)"/><path class="cls-3" d="M154.12,167.93a1.59,1.59,0,0,0,1.41.75,1.14,1.14,0,0,0,.77-0.27,1,1,0,0,0,.32-0.82,1.52,1.52,0,0,0-.19-0.76,2.36,2.36,0,0,0-.48-0.6q-0.29-.26-0.87-0.72t-1.06-.9a3.16,3.16,0,0,1-.61-0.78,2.05,2.05,0,0,1-.25-1,1.84,1.84,0,0,1,.36-1.13,2.22,2.22,0,0,1,1-.72,3.44,3.44,0,0,1,1.31-.25,3.79,3.79,0,0,1,1.07.14,2.76,2.76,0,0,1,.76.33,0.48,0.48,0,0,0,.27.1q0.28,0,.36-0.56h0.34q-0.06.77-.06,2.69h-0.34a3.85,3.85,0,0,0-.6-1.68,1.54,1.54,0,0,0-1.35-.68,1.07,1.07,0,0,0-.75.26,0.91,0.91,0,0,0-.29.72,1.27,1.27,0,0,0,.34.89,5.16,5.16,0,0,0,.83.72l0.71,0.52a11.57,11.57,0,0,1,1,.82,3,3,0,0,1,.6.79,2.17,2.17,0,0,1,.23,1,1.91,1.91,0,0,1-.39,1.19,2.52,2.52,0,0,1-1.06.79A3.71,3.71,0,0,1,156,169a3,3,0,0,1-1.42-.32,6,6,0,0,0-.72-0.32l-0.07,0q-0.25,0-.36.54h-0.34q0.06-.87.06-3.05h0.34A4.68,4.68,0,0,0,154.12,167.93Z" transform="translate(0 -6.46)"/><path class="cls-3" d="M166.51,161.7a5.53,5.53,0,0,1,0,6.33,4.28,4.28,0,0,1-5.49,0,5.51,5.51,0,0,1,0-6.33A4.26,4.26,0,0,1,166.51,161.7Zm-3.79.25a8.16,8.16,0,0,0-.39,2.92,8.07,8.07,0,0,0,.39,2.9,1.05,1.05,0,0,0,2.1,0,8.2,8.2,0,0,0,.38-2.91,8.29,8.29,0,0,0-.38-2.92A1.05,1.05,0,0,0,162.72,162Z" transform="translate(0 -6.46)"/><path class="cls-3" d="M174.14,160.7a3,3,0,0,1,1,.15,1.58,1.58,0,0,1,.65.44,1.76,1.76,0,0,1,.37.75,5.47,5.47,0,0,1,.11,1.24v4.11a1.81,1.81,0,0,0,.1.66,0.6,0.6,0,0,0,.31.34,1.38,1.38,0,0,0,.57.1v0.32l-2-.06-2,.06v-0.32a1,1,0,0,0,.49-0.1,0.56,0.56,0,0,0,.26-0.34,2.22,2.22,0,0,0,.08-0.66v-4.75a1.78,1.78,0,0,0-.21-0.95,0.81,0.81,0,0,0-.74-0.32,1.35,1.35,0,0,0-.76.23,1.6,1.6,0,0,0-.55.64,2,2,0,0,0-.2.9v4.25a2.12,2.12,0,0,0,.08.66,0.57,0.57,0,0,0,.26.34,1,1,0,0,0,.48.1v0.32q-1.4-.06-1.9-0.06l-2.11.06v-0.32a1.41,1.41,0,0,0,.58-0.1,0.58,0.58,0,0,0,.31-0.34,1.89,1.89,0,0,0,.09-0.66v-4.82a1.87,1.87,0,0,0-.22-1,0.86,0.86,0,0,0-.76-0.32v-0.32q0.48,0,.95,0a9.91,9.91,0,0,0,2.23-.21v1.37A2.54,2.54,0,0,1,174.14,160.7Z" transform="translate(0 -6.46)"/><path class="cls-3" d="M180.48,167a1.23,1.23,0,0,1,0,1.72,1.59,1.59,0,0,1-1.9,0,1.24,1.24,0,0,1,0-1.72A1.58,1.58,0,0,1,180.48,167Z" transform="translate(0 -6.46)"/></svg>