<svg id="Capa_2" data-name="Capa 2" xmlns="http://www.w3.org/2000/svg" xmlns:xlink="http://www.w3.org/1999/xlink" viewBox="0 0 224.7 268.44"><defs><style>.cls-1{fill:none;}.cls-2{clip-path:url(#clip-path);}.cls-3{fill:#003057;}.cls-4{font-size:20.68px;}.cls-4,.cls-7,.cls-8{fill:#fff;}.cls-4,.cls-5,.cls-6{font-family:Playfair Display;font-weight:700;}.cls-5{font-size:51.71px;}.cls-5,.cls-6{fill:#cad30e;}.cls-6{font-size:12.93px;}.cls-8,.cls-9{white-space:pre;}</style><clipPath id="clip-path" transform="translate(0 -6.26)"><rect class="cls-1" y="-6.54" width="319.6" height="479.54"/></clipPath></defs><title>fingerprint_administracion_general</title><g class="cls-2"><path class="cls-3" d="M222,104.23a116.21,116.21,0,0,0-6.52-21.07c-15.6-36.86-51.17-64.41-95.26-73.62C83.66,1.74,46.26,8,15.62,27.09A168.43,168.43,0,0,0,0,38.25V230.5a133.81,133.81,0,0,0,37.87,30.41c32,17,68,18.33,101.31,3.88,38.9-16.79,68.89-51.64,80-93.15C225.34,148.69,226.42,125.41,222,104.23Z" transform="translate(0 -6.26)"/><text class="cls-4" transform="translate(36.55 56.9)">Administración<tspan x="0" y="24.82">g</tspan><tspan x="11.23" y="24.82">e</tspan><tspan x="21.53" y="24.82">n</tspan><tspan x="34.23" y="24.82">e</tspan><tspan x="44.53" y="24.82">ral</tspan></text><text class="cls-5" transform="translate(15.65 141.46)">“</text><text class="cls-6" transform="translate(15.7 140.24)">Ap<tspan x="16.38" y="0">r</tspan><tspan x="22.23" y="0">e</tspan><tspan x="28.67" y="0">nd</tspan><tspan x="44.34" y="0">e</tspan><tspan x="50.78" y="0">r</tspan><tspan class="cls-7" x="56.54" y="0"> </tspan><tspan class="cls-7" x="59.55" y="0">a</tspan><tspan class="cls-8" x="66.19" y="0"> planea</tspan><tspan class="cls-7" x="108.82" y="0">r</tspan><tspan class="cls-7" x="114.35" y="0">, organiza</tspan><tspan class="cls-7" x="172.76" y="0">r</tspan><tspan class="cls-7"><tspan x="0" y="15.51">y</tspan><tspan class="cls-9" x="6.35" y="15.51"> dirigi</tspan><tspan x="42.36" y="15.51">r</tspan><tspan class="cls-9" x="48.13" y="15.51"> impact</tspan><tspan x="92.33" y="15.51">a</tspan><tspan x="98.96" y="15.51"> </tspan><tspan x="101.97" y="15.51">e</tspan><tspan x="108.41" y="15.51">n el </tspan></tspan><tspan x="0" y="31.03">desar</tspan><tspan x="32.95" y="31.03">r</tspan><tspan x="38.8" y="31.03">o</tspan><tspan x="45.98" y="31.03">l</tspan><tspan x="50" y="31.03">l</tspan><tspan x="53.9" y="31.03">o</tspan><tspan class="cls-8" x="61.2" y="31.03"> organizacional</tspan><tspan class="cls-7" x="152.54" y="31.03"> </tspan><tspan class="cls-7" x="155.18" y="31.03">y</tspan><tspan class="cls-7" x="161.53" y="31.03"> </tspan><tspan class="cls-7"><tspan x="0" y="46.54">social.</tspan></tspan></text><text class="cls-5" transform="translate(146.87 232.66)">”</text></g></svg>