<svg id="Capa_4" data-name="Capa 4" xmlns="http://www.w3.org/2000/svg" xmlns:xlink="http://www.w3.org/1999/xlink" viewBox="0 0 224.16 267.79"><defs><style>.cls-1{fill:none;}.cls-2{clip-path:url(#clip-path);}.cls-3{fill:#005a70;}.cls-4{font-size:23.21px;}.cls-4,.cls-8{fill:#fff;}.cls-4,.cls-6,.cls-7{font-family:Playfair Display;font-weight:700;}.cls-5{white-space:pre;}.cls-6{font-size:51.59px;}.cls-6,.cls-7{fill:#ccd50e;}.cls-7{font-size:12.9px;}</style><clipPath id="clip-path" transform="translate(0 -6.41)"><rect class="cls-1" y="-6.36" width="318.82" height="478.36"/></clipPath></defs><title>fingerprint_ingenieria_y_computacion</title><g class="cls-2"><path class="cls-3" d="M221.5,104.14a115.92,115.92,0,0,0-6.5-21c-15.56-36.77-51-64.25-95-73.44C83.46,1.9,46.31,8.11,15.74,27.19A138.08,138.08,0,0,0,0,38.6V229.71a130,130,0,0,0,37.95,30.72c31.88,16.91,67.78,18.28,101,3.87,38.8-16.75,68.68-51.51,79.74-92.92C224.82,148.49,225.86,125.26,221.5,104.14Z" transform="translate(0 -6.41)"/><text class="cls-4" transform="translate(36.46 56.76)">Ing<tspan x="35.58" y="0">e</tspan><tspan x="47.14" y="0">ni</tspan><tspan x="68.7" y="0">e</tspan><tspan x="80.26" y="0">rí</tspan><tspan x="98.41" y="0">a</tspan><tspan x="110.32" y="0"> </tspan><tspan x="0" y="27.86">y</tspan><tspan class="cls-5" x="11.4" y="27.86"> Computación</tspan></text><text class="cls-6" transform="translate(15.61 141.11)">“</text><text class="cls-7" transform="translate(15.66 139.89)">S<tspan x="7.53" y="0">o</tspan><tspan x="14.69" y="0">luciones ing</tspan><tspan x="86.62" y="0">e</tspan><tspan x="93.04" y="0">niosas</tspan><tspan class="cls-8" x="130.9" y="0"> </tspan><tspan class="cls-8" x="133.9" y="0">e</tspan><tspan class="cls-8" x="140.32" y="0">n</tspan><tspan class="cls-8"><tspan x="0" y="15.48">t</tspan><tspan x="4.49" y="15.48">odos</tspan><tspan x="32.73" y="15.48"> </tspan><tspan x="35.58" y="15.48">l</tspan><tspan x="39.46" y="15.48">os ámbi</tspan><tspan x="85.68" y="15.48">t</tspan><tspan x="90.17" y="15.48">os del </tspan><tspan x="0" y="30.95">quehac</tspan><tspan x="42.78" y="30.95">e</tspan><tspan x="49.2" y="30.95">r</tspan><tspan x="54.95" y="30.95"> </tspan><tspan x="57.79" y="30.95">humano of</tspan><tspan x="121.83" y="30.95">r</tspan><tspan x="127.67" y="30.95">ec</tspan><tspan x="140.56" y="30.95">e</tspan><tspan x="146.99" y="30.95">n </tspan></tspan><tspan x="0" y="46.43">nu</tspan><tspan x="15.73" y="46.43">e</tspan><tspan x="22.1" y="46.43">v</tspan><tspan x="28.51" y="46.43">as al</tspan><tspan x="54.84" y="46.43">t</tspan><tspan x="59.33" y="46.43">e</tspan><tspan x="65.75" y="46.43">rnat</tspan><tspan x="90.91" y="46.43">i</tspan><tspan x="94.92" y="46.43">v</tspan><tspan x="101.33" y="46.43">as </tspan><tspan x="116.97" y="46.43">a</tspan><tspan x="123.59" y="46.43"> </tspan><tspan x="126.43" y="46.43">l</tspan><tspan x="130.32" y="46.43">os </tspan><tspan x="0" y="61.9">p</tspan><tspan x="7.74" y="61.9">r</tspan><tspan x="13.58" y="61.9">o</tspan><tspan x="20.86" y="61.9">bl</tspan><tspan x="32.18" y="61.9">e</tspan><tspan x="38.6" y="61.9">mas.</tspan></text><text class="cls-6" transform="translate(146.51 232.09)">”</text></g></svg>