<svg id="Capa_3" data-name="Capa 3" xmlns="http://www.w3.org/2000/svg" xmlns:xlink="http://www.w3.org/1999/xlink" viewBox="0 0 224.92 268.7"><defs><style>.cls-1{fill:none;}.cls-2{clip-path:url(#clip-path);}.cls-3{fill:#cde3dd;}.cls-4{font-size:20.7px;fill:#003057;}.cls-4,.cls-5,.cls-6{font-family:Playfair Display;font-weight:700;}.cls-5{font-size:51.76px;}.cls-5,.cls-7{fill:#007f9c;}.cls-6{font-size:12.94px;}.cls-6,.cls-9{fill:#fff;}.cls-8,.cls-9{white-space:pre;}</style><clipPath id="clip-path" transform="translate(0 -5.81)"><rect class="cls-1" y="-7" width="319.91" height="480"/></clipPath></defs><title>fingerprint_ciencias_y_matematicas</title><g class="cls-2"><path class="cls-3" d="M222.26,103.88a116.33,116.33,0,0,0-6.52-21.09c-15.61-36.9-51.22-64.47-95.36-73.69C83.74,1.29,46.31,7.52,15.63,26.66A167.94,167.94,0,0,0,0,37.83V230.27A133.79,133.79,0,0,0,37.91,260.7c32,17,68.1,18.35,101.41,3.89,38.93-16.8,69-51.69,80.06-93.24C225.55,148.38,226.64,125.07,222.26,103.88Z" transform="translate(0 -5.81)"/><text class="cls-4" transform="translate(36.59 56.96)">Ci<tspan x="21.12" y="0">e</tspan><tspan x="31.43" y="0">ncias</tspan><tspan x="81.22" y="0"> </tspan><tspan x="85.45" y="0">y</tspan><tspan x="95.62" y="0"> </tspan><tspan x="0" y="24.85">M</tspan><tspan x="19.07" y="24.85">a</tspan><tspan x="29.79" y="24.85">t</tspan><tspan x="37" y="24.85">e</tspan><tspan x="47.31" y="24.85">máticas</tspan></text><text class="cls-5" transform="translate(15.66 141.59)">“</text><text class="cls-6" transform="translate(15.71 140.37)">El <tspan class="cls-7" x="15.24" y="0">a</tspan><tspan class="cls-7" x="21.82" y="0">v</tspan><tspan class="cls-7" x="28.24" y="0">ance ci</tspan><tspan class="cls-7" x="69.34" y="0">e</tspan><tspan class="cls-7" x="75.79" y="0">ntífico</tspan><tspan class="cls-8" x="114.51" y="0"> impact</tspan><tspan x="158.76" y="0">a</tspan><tspan class="cls-8" x="165.4" y="0"> al </tspan><tspan class="cls-7"><tspan x="0" y="15.53">desar</tspan><tspan x="32.98" y="15.53">r</tspan><tspan x="38.84" y="15.53">o</tspan><tspan x="46.02" y="15.53">l</tspan><tspan x="50.05" y="15.53">l</tspan><tspan x="53.95" y="15.53">o g</tspan><tspan x="71.3" y="15.53">l</tspan><tspan x="75.2" y="15.53">obal</tspan><tspan class="cls-9" x="100.82" y="15.53"> mejorando </tspan></tspan><tspan x="0" y="31.06">l</tspan><tspan x="4.02" y="31.06">a</tspan><tspan class="cls-8" x="10.67" y="31.06"> calidad de</tspan><tspan x="74.36" y="31.06"> </tspan><tspan x="77.02" y="31.06">vid</tspan><tspan x="95.41" y="31.06">a</tspan><tspan class="cls-8" x="102.05" y="31.06"> de</tspan><tspan x="119.32" y="31.06"> </tspan><tspan x="122.18" y="31.06">las </tspan><tspan x="0" y="46.59">p</tspan><tspan x="7.77" y="46.59">e</tspan><tspan x="14.21" y="46.59">rsonas.</tspan></text><text class="cls-5" transform="translate(147.01 232.88)">”</text></g></svg>