<svg id="Capa_8" data-name="Capa 8" xmlns="http://www.w3.org/2000/svg" viewBox="0 0 203.32 207.64"><defs><style>.cls-1{fill:#003057;}.cls-2{font-size:10px;font-family:Open Sans;}.cls-2,.cls-6{fill:#fff;}.cls-3{font-weight:700;}.cls-4{font-size:8px;}.cls-5{fill:none;stroke:#fff;stroke-miterlimit:10;}.cls-7{fill:#008fb0;}</style></defs><title>mision</title><path class="cls-1" d="M211.87,144.28c4.77-17.75,5.58-35.76,2.2-52.14a89.89,89.89,0,0,0-5-16.3C197,47.33,169.45,26,135.34,18.89c-28.32-6-57.12-1.21-80.82,13.58C39.45,41.86,28,53.87,21.32,67.24c-7.62,15-10.14,34.24-7.51,55.57a136.85,136.85,0,0,0,9.55,35.6v0C33.76,183,50.5,202,71.73,213.33a88.75,88.75,0,0,0,78.3,3c30.09-13,53.26-39.94,61.84-72.05" transform="translate(-12.81 -16.36)"/><text class="cls-2" transform="translate(38.47 127.58)"><tspan class="cls-3">Misión</tspan><tspan class="cls-4"><tspan x="0" y="19.2">Nuestra misión es ayudar a las </tspan><tspan x="0" y="28.8">personas a lograr progresos </tspan><tspan x="0" y="38.4">cuantificables en sus vidas a través </tspan><tspan x="0" y="48">del aprendizaje</tspan></tspan></text><line class="cls-5" x1="30.59" y1="135.31" x2="178.86" y2="135.31"/><path class="cls-6" d="M105.32,114.32a0.36,0.36,0,0,0-.41-0.22h-0.05a1.51,1.51,0,0,1-1.18-.11,2.12,2.12,0,0,1-.58-1.82v-8.7c0-3.4-2-5.12-6-5.12-3.58,0-6.39,1.7-6.39,3.86a1.92,1.92,0,0,0,1.68,2,2.07,2.07,0,0,0,1.73-.7c0.88-.93.77-2-0.3-3.22a4.22,4.22,0,0,1,3-1.05c2.08,0,3,1.23,3,4.12v2.2c-0.49.15-.94,0.29-1.78,0.49A23.39,23.39,0,0,0,92.27,108a4,4,0,0,0-2.17,3.7c0,1.81,1.19,3.93,4.55,3.93,1.88,0,3.56-.89,5.29-2.8,0.15,2,.9,2.73,2.73,2.73a5.22,5.22,0,0,0,2.42-.61,0.48,0.48,0,0,0,.24-0.61m-5.54-2.66c-0.41.57-1.74,2.26-3.4,2.26-2.24,0-2.71-1.57-2.71-2.89,0-2.17,1.66-3.18,6.11-4.27v4.91Zm43,4a8.32,8.32,0,0,1-8.34-8.66,8.57,8.57,0,0,1,8.34-8.77,8.38,8.38,0,0,1,8.3,8.63,8.57,8.57,0,0,1-8.3,8.81M142.6,99.17c-2.05,0-4.41.88-4.41,7.77,0,5.25,1.55,7.81,4.74,7.81s4.41-2.41,4.41-7.81C147.33,101.71,145.78,99.17,142.6,99.17Zm-73.31-.62c0,4-1,6.21-6,6.21H60.58V92.66h2.79c5.22,0,5.93,3,5.93,5.89m-8.71,13.62v-6.3H63c3.62,0,6.37-.77,8.18-2.28a6.3,6.3,0,0,0,2.29-5c0-5.76-5.56-7-10.22-7H53.82a0.39,0.39,0,0,0-.39.39v0h0a0.47,0.47,0,0,0,.31.44c0.84,0.31,3.13-.13,3.13,2.33v17.34c0,1.26-.56,2.15-3.12,2.39a0.39,0.39,0,0,0-.36.39V115a0.39,0.39,0,0,0,.39.39h10.1a0.39,0.39,0,0,0,.39-0.39V115a0.39,0.39,0,0,0-.36-0.39c-2.78-.22-3.34-1.08-3.34-2.4v-6.28m20.54-7.66c-4.4,0-8,4-8,8.87s3.35,8.55,8,8.55A7.65,7.65,0,0,0,88,111.59a0.39,0.39,0,0,0-.11-0.52l-0.05,0a0.39,0.39,0,0,0-.53.08c-1.43,1.79-2.68,2.83-4.83,2.83-2.73,0-5.64-1.88-5.64-7.16v0c0-.23,0-0.55,0-0.85H88a0.06,0.06,0,0,0,.06-0.05v-0.09a7.15,7.15,0,0,0-1.72-5.47,6.88,6.88,0,0,0-5.2-2m-4.24,6.55c0.37-3.61,1.78-5.59,4-5.59a3.21,3.21,0,0,1,2.51.94c0.8,0.87,1.13,2.43,1,4.65h-7.5Zm50.52,0.2c3.81,1.08,5.23,2.47,5.23,5.12a5.28,5.28,0,0,1-5.74,5.56,9.23,9.23,0,0,1-4.34-1.18l-1.07,1.07a0.39,0.39,0,0,1-.27.11h-0.4a0.06,0.06,0,0,1-.06-0.06v-5.7a0.39,0.39,0,0,1,.39-0.39h0.29a0.06,0.06,0,0,1,.05,0l0,0.05c2.34,4.2,3.37,5.11,5.81,5.11,1.31,0,3.16-.86,3.16-2.76,0-1.72-1.15-2.64-4.39-3.52s-5.27-2-5.27-4.9c0-3.1,2.45-5.27,6-5.27a8,8,0,0,1,3.64,1l0.68-.82a0.39,0.39,0,0,1,.3-0.14h0.38a0.06,0.06,0,0,1,.06.06v5.09a0.39,0.39,0,0,1-.39.39h-0.29a0.06,0.06,0,0,1,0,0l0,0c-2.12-3.54-3-4.5-5-4.5a2.73,2.73,0,0,0-2.94,2.69c0,1.37,1.19,2.24,4.24,3.09h0m-18.48,8.38V101c0-.72-0.2-1.41-1.65-1.61a0.38,0.38,0,0,1-.32-0.38V99a0.38,0.38,0,0,1,.38-0.39l4.35-.12a0.47,0.47,0,0,1,.48.47v2.61c1.38-2.3,3-3.27,4.66-3.27a2.48,2.48,0,0,1,2.78,2.52,2.07,2.07,0,1,1-4.14,0,3,3,0,0,1,.11-0.76c-1.38.3-2.2,1.29-3.33,3.18v10.13c0,0.92.41,1.18,2,1.26a0.39,0.39,0,0,1,.37.39,0.38,0.38,0,0,1-.38.38h-6.91a0.39,0.39,0,0,1,0-.77c1.4-.09,1.62-0.38,1.62-1.25m47.78-14.9a0.39,0.39,0,0,1,.39.39l0,2.89a6.32,6.32,0,0,1,6-3.39h0c2.87,0,4.51,1.83,4.51,5v10c0,0.88.22,1.17,1.62,1.26a0.39,0.39,0,0,1,0,.77h-6.21a0.39,0.39,0,0,1,0-.78c1.13-.1,1.31-0.38,1.31-1.25v-9c0-3-.85-4.13-3-4.13-1.47,0-2.67,1.28-3.42,2.35a7.31,7.31,0,0,0-.8,1.38l0,9.4c0,0.86.18,1.15,1.27,1.25a0.39,0.39,0,0,1,0,.78h-6.17a0.39,0.39,0,0,1,0-.77c1.4-.09,1.62-0.38,1.62-1.25V101c0-.72-0.2-1.41-1.66-1.62a0.38,0.38,0,0,1-.32-0.38V99a0.39,0.39,0,0,1,.38-0.39l4.48-.12" transform="translate(-12.81 -16.36)"/><path class="cls-7" d="M124.89,32.46c10.94,6.23,13.49,20.21,5.88,34.35-6.69,12.43-21.3,17.74-32.18,11.41s-13-24-8.33-34.15c6.79-14.76,22.55-18.5,34.64-11.61" transform="translate(-12.81 -16.36)"/><path class="cls-6" d="M124.64,43.18a10.84,10.84,0,0,1,2.44,8.6A11.46,11.46,0,0,1,121.41,60a18.63,18.63,0,0,1-9.36,2.24c0,0.53-.13,2.36-0.19,2.65a1.89,1.89,0,0,1-.41.9,3.09,3.09,0,0,1-1.61.95,5.12,5.12,0,0,1-1.33.2h-0.17a1.67,1.67,0,0,1-1-.49,1.73,1.73,0,0,1-.42-1l0-.36c-0.07-.31-0.46-16.08-0.38-15.8,0.06-1.89,3.11-2.22,4.76-1.89s1.24,2.35,1.19,4.83c0,0-.08,3.26-0.23,6.7a12.74,12.74,0,0,0,5.36-1.46c3.17-1.57,4.85-4,4.85-7.53s-3.46-7.53-9.83-7.53-9.11,1.61-12.2,4.16c-0.7.58-1.23,1.16-1.74,1.54a1.57,1.57,0,0,1-2.21-.45c-0.43-1.08.38-2.28,0.86-2.86A16.93,16.93,0,0,1,101.94,41a20.05,20.05,0,0,1,9.22-2.65c3.62-.09,9.33.2,13.45,4.85m-13.8,26.14a2.63,2.63,0,0,0-1.08-.51,2.07,2.07,0,0,0-.39,0,2.31,2.31,0,0,0-1.87,1,2.51,2.51,0,0,0-.44,1.83,2,2,0,0,0,.44,1,2.24,2.24,0,0,0,1.11.66,3.14,3.14,0,0,0,.84.12h0a2.5,2.5,0,0,0,1.6-.53,2,2,0,0,0,.76-1.63,2.53,2.53,0,0,0-1-2" transform="translate(-12.81 -16.36)"/></svg>