<svg id="Capa_1" data-name="Capa 1" xmlns="http://www.w3.org/2000/svg" viewBox="0 0 560.22 637.54"><defs><style>.cls-1{fill:#fff;}</style></defs><title>nuevo_splash</title><g id="_Grupo_" data-name="&lt;Grupo&gt;"><path id="_Trazado_compuesto_" data-name="&lt;Trazado compuesto&gt;" class="cls-1" d="M584.52,121.9c38.88,41.51,51,104.5,44.23,156.16C621,337,585.32,391.49,525.93,427.63c-47.1,28.66-109,40.1-169.86,40.64-0.49,9.65-2.41,42.9-3.38,48.16a34.3,34.3,0,0,1-7.47,16.28c-6.54,8.52-17.88,14-29.14,17.23A93,93,0,0,1,292,553.59a24.82,24.82,0,0,1-3.12-.19c-6.62-.75-14-3.86-18.52-8.93a31.46,31.46,0,0,1-7.71-18.75l-0.51-6.56c-1.29-5.65-8.35-291.9-7-286.81,1-34.3,56.39-40.28,86.44-34.22s22.49,42.65,21.67,87.62c0,0-1.43,59.14-4.21,121.62,38.33-1.5,68.78-12.42,97.28-26.59,57.56-28.53,88-72.3,88-136.76S481.61,107.36,365.84,107.36s-165.46,29.2-221.51,75.57c-12.64,10.45-22.37,21-31.58,27.93s-33.65,8-40.2-8.23c-7.9-19.57,6.86-41.38,15.53-51.94,13.61-16.57,47.19-49.94,84.41-69.34,42.63-22.25,94.78-46.21,167.38-48,65.68-1.66,169.39,3.66,244.1,88M333.43,595.86a47.69,47.69,0,0,0-19.69-9.32,37.73,37.73,0,0,0-7.09-.71c-12.92,0-25.58,7.11-33.87,19.06a45.53,45.53,0,0,0-7.92,33.28,37.2,37.2,0,0,0,8,18.43C277.39,662,284.36,666,293,668.51a57.1,57.1,0,0,0,15.23,2.12h0c11.15,0,21.18-3.34,29-9.67a37.06,37.06,0,0,0,13.89-29.62,45.84,45.84,0,0,0-17.64-35.48" transform="translate(-70.3 -33.08)"/></g></svg>