<?xml version="1.0" encoding="iso-8859-1"?>
<!-- Generator: Adobe Illustrator 19.2.1, SVG Export Plug-In . SVG Version: 6.00 Build 0)  -->
<svg version="1.1" id="Logo" xmlns="http://www.w3.org/2000/svg" xmlns:xlink="http://www.w3.org/1999/xlink" x="0px" y="0px"
	 viewBox="0 0 1620.5 1279.532" style="enable-background:new 0 0 1620.5 1279.532;" xml:space="preserve">
<g id="XMLID_39_">
	<path id="XMLID_404_" style="fill:#FFFFFF;" d="M1292.571,200.729c75.091,80.175,98.474,201.836,85.416,301.608
		c-14.922,113.781-83.876,219.06-198.583,288.865c-90.968,55.356-210.467,77.446-328.061,78.496
		c-0.94,18.641-4.664,82.864-6.535,93.024c-2.765,14.983-8.008,23.064-14.432,31.452c-12.625,16.451-34.532,27.087-56.289,33.283
		c-17.298,4.919-34.401,7.035-46.53,7.035c-2.055,0-4.055-0.115-6.019-0.363c-12.791-1.448-26.981-7.453-35.763-17.251
		c-8.763-9.797-13.732-22.18-14.895-36.219l-0.977-12.675c-2.497-10.922-16.119-563.778-13.474-553.942
		c1.972-66.239,108.92-77.795,166.952-66.098c58.147,11.721,43.428,82.372,41.859,169.223c0,0-2.764,114.216-8.126,234.897
		c74.029-2.897,132.843-23.994,187.888-51.35c111.171-55.107,170.016-139.631,170.016-264.137
		c0-124.507-121.214-263.932-344.804-263.932c-223.589,0-319.569,56.395-427.832,145.964
		c-24.405,20.191-43.205,40.541-60.984,53.937c-17.779,13.396-64.995,15.45-77.65-15.901
		c-15.256-37.794,13.248-79.925,29.991-100.31c26.289-32.006,91.149-96.46,163.032-133.916
		c82.329-42.979,183.055-89.258,323.276-92.797c126.862-3.202,327.164,7.071,471.45,170.035 M807.62,1116.121
		c-11.686-9.107-24.81-15.354-38.025-18.007c-4.506-0.866-9.124-1.365-13.686-1.365c-24.955,0-49.414,13.731-65.413,36.808
		c-13.372,19.15-18.836,42.042-15.289,64.271c2.25,14.137,7.557,26.429,15.382,35.591c8.791,10.358,22.246,18.266,38.908,23.021
		c9.649,2.672,19.538,4.091,29.417,4.091h0.019c21.527,0,40.899-6.451,55.947-18.67c17.502-14.248,27.031-34.579,26.818-57.213
		C841.506,1158.236,828.761,1132.579,807.62,1116.121"/>
</g>
</svg>
