<svg id="Capa_1" data-name="Capa 1" xmlns="http://www.w3.org/2000/svg" x="170px" y="385px" viewBox="0 0 800 800">
  <defs>
    <style>.cls-1{fill:#fff;} </style>
  </defs>
  <title>Sin título-1</title>
  <g id="_Grupo_" data-name="&lt;Grupo&gt;" >
    <path id="_Trazado_compuesto_"
      data-name="&lt;Trazado compuesto&gt;"
      class="cls-1"
      d="M490.87,213.89c23.33,24.91,30.59,62.7,26.54,93.7-4.64,35.35-26.06,68.05-61.69,89.74-28.26,17.2-65.38,24.06-101.91,24.39-0.29,5.79-1.45,25.74-2,28.9a20.58,20.58,0,0,1-4.48,9.77c-3.92,5.11-10.73,8.41-17.49,10.34a55.81,55.81,0,0,1-14.45,2.19,14.89,14.89,0,0,1-1.87-.11,18.17,18.17,0,0,1-11.11-5.36,18.87,18.87,0,0,1-4.63-11.25l-0.3-3.94c-0.78-3.39-5-175.14-4.19-172.09,0.61-20.58,33.84-24.17,51.86-20.53s13.49,25.59,13,52.57c0,0-.86,35.48-2.52,73,23-.9,41.27-7.45,58.37-16,34.54-17.12,52.82-43.38,52.82-82.06s-37.66-82-107.12-82-99.28,17.52-132.91,45.34c-7.58,6.27-13.42,12.59-18.95,16.76s-20.19,4.8-24.12-4.94c-4.74-11.74,4.12-24.83,9.32-31.16,8.17-9.94,28.32-30,50.65-41.6,25.58-13.35,56.87-27.73,100.43-28.83,39.41-1,101.64,2.2,146.46,52.82M340.22,498.26a28.62,28.62,0,0,0-11.81-5.59,22.64,22.64,0,0,0-4.25-.42c-7.75,0-15.35,4.27-20.32,11.43a27.32,27.32,0,0,0-4.75,20,22.32,22.32,0,0,0,4.78,11.06c2.73,3.22,6.91,5.67,12.09,7.15a34.26,34.26,0,0,0,9.14,1.27h0a27.18,27.18,0,0,0,17.38-5.8,22.24,22.24,0,0,0,8.33-17.77,27.51,27.51,0,0,0-10.59-21.29"
    />

    <animateTransform
      attributeType="xml"
      attributeName="transform"
      type="scale"
      from="0"
      by="1"
      dur="3s"
    />
  </g>

</svg>
