<svg id="Capa_6" data-name="Capa 6" xmlns="http://www.w3.org/2000/svg" xmlns:xlink="http://www.w3.org/1999/xlink" viewBox="0 0 222.42 265.7"><defs><style>.cls-1{fill:none;}.cls-2{clip-path:url(#clip-path);}.cls-3{fill:#008038;}.cls-4{font-size:23.03px;}.cls-4,.cls-6,.cls-9{fill:#fff;}.cls-4,.cls-5,.cls-6{font-family:Playfair Display;font-weight:700;}.cls-5{font-size:51.18px;}.cls-5,.cls-7{fill:#003057;}.cls-6{font-size:12.8px;}.cls-8{white-space:pre;}</style><clipPath id="clip-path" transform="translate(0 -7.67)"><rect class="cls-1" y="-5" width="316.33" height="474.63"/></clipPath></defs><title>fingerprint_ciencias_sociales</title><g class="cls-2"><path class="cls-3" d="M219.78,104.64a115,115,0,0,0-6.45-20.85C197.89,47.3,162.68,20,119,10.91,82.81,3.19,46,9.36,15.62,28.28A137,137,0,0,0,0,39.6V229.23a128.94,128.94,0,0,0,37.65,30.48c31.63,16.78,67.25,18.14,100.19,3.84,38.5-16.62,68.14-51.11,79.12-92.2C223.07,148.64,224.1,125.59,219.78,104.64Z" transform="translate(0 -7.67)"/><text class="cls-4" transform="translate(36.18 56.32)">Ci<tspan x="23.49" y="0">e</tspan><tspan x="34.96" y="0">ncias</tspan><tspan x="0" y="27.64">socia</tspan><tspan x="54.26" y="27.64">l</tspan><tspan x="61.2" y="27.64">es</tspan></text><text class="cls-5" transform="translate(15.49 140.01)">“</text><text class="cls-6" transform="translate(15.54 138.81)">L<tspan x="7.82" y="0">a</tspan><tspan x="14.38" y="0"> </tspan><tspan class="cls-7" x="17.36" y="0">educación</tspan><tspan class="cls-8" x="77.66" y="0"> de cad</tspan><tspan x="118.35" y="0">a</tspan><tspan class="cls-8" x="124.92" y="0"> p</tspan><tspan x="135.58" y="0">e</tspan><tspan x="141.95" y="0">rson</tspan><tspan x="168.91" y="0">a</tspan><tspan x="175.48" y="0"> </tspan><tspan x="0" y="15.35">impact</tspan><tspan x="40.77" y="15.35">a</tspan><tspan class="cls-8" x="47.33" y="15.35"> el </tspan><tspan class="cls-7" x="63.72" y="15.35">desar</tspan><tspan class="cls-7" x="96.34" y="15.35">r</tspan><tspan class="cls-7" x="102.13" y="15.35">o</tspan><tspan class="cls-7" x="109.23" y="15.35">l</tspan><tspan class="cls-7" x="113.21" y="15.35">l</tspan><tspan class="cls-7" x="117.07" y="15.35">o</tspan><tspan class="cls-8" x="124.3" y="15.35"> de su </tspan><tspan class="cls-7"><tspan x="0" y="30.71">comunidad</tspan><tspan class="cls-9" x="66.73" y="30.71"> </tspan><tspan class="cls-9" x="69.34" y="30.71">y</tspan><tspan class="cls-9" x="75.63" y="30.71"> </tspan><tspan class="cls-9" x="78.61" y="30.71">e</tspan><tspan class="cls-9" x="84.98" y="30.71">n</tspan><tspan class="cls-9" x="92.83" y="30.71">t</tspan><tspan class="cls-9" x="97.29" y="30.71">orno social.</tspan></tspan></text><text class="cls-5" transform="translate(145.37 230.28)">”</text></g></svg>