<svg id="Capa_7" data-name="Capa 7" xmlns="http://www.w3.org/2000/svg" xmlns:xlink="http://www.w3.org/1999/xlink" viewBox="0 0 223.67 267.19"><defs><style>.cls-1{fill:none;}.cls-2{clip-path:url(#clip-path);}.cls-3{fill:#505759;}.cls-4{font-size:23.16px;}.cls-10,.cls-4,.cls-7{fill:#fff;}.cls-4,.cls-5,.cls-6{font-family:Playfair Display;font-weight:700;}.cls-5{font-size:51.47px;}.cls-5,.cls-8,.cls-9{fill:#c9d20e;}.cls-6{font-size:12.87px;}.cls-10,.cls-11,.cls-9{white-space:pre;}</style><clipPath id="clip-path" transform="translate(0 -5.07)"><rect class="cls-1" y="-7.67" width="318.11" height="477.3"/></clipPath></defs><title>fingerprint_productos_digitales</title><g class="cls-2"><path class="cls-3" d="M221,102.59a115.67,115.67,0,0,0-6.49-21C199,44.93,163.6,17.51,119.71,8.34,83.27,0.57,46.21,6.77,15.71,25.8A137.78,137.78,0,0,0,0,37.19V227.88a129.66,129.66,0,0,0,37.86,30.65c31.81,16.87,67.63,18.24,100.75,3.86,38.72-16.71,68.53-51.39,79.57-92.71C224.33,146.84,225.36,123.66,221,102.59Z" transform="translate(0 -5.07)"/><text class="cls-4" transform="translate(36.38 56.64)">P<tspan x="14.85" y="0">r</tspan><tspan x="25.33" y="0">oduc</tspan><tspan x="77.8" y="0">t</tspan><tspan x="85.86" y="0">os </tspan><tspan x="0" y="27.79">digita</tspan><tspan x="61.17" y="27.79">l</tspan><tspan x="68.15" y="27.79">es</tspan></text><text class="cls-5" transform="translate(15.57 140.8)">“</text><text class="cls-6" transform="translate(15.62 139.58)"><tspan class="cls-7">L</tspan><tspan class="cls-7" x="7.86" y="0">a</tspan><tspan x="14.46" y="0"> </tspan><tspan class="cls-8" x="17.3" y="0">t</tspan><tspan class="cls-8" x="21.78" y="0">ecn</tspan><tspan class="cls-8" x="42.55" y="0">ol</tspan><tspan class="cls-8" x="53.57" y="0">ogí</tspan><tspan class="cls-8" x="71.88" y="0">a</tspan><tspan x="78.48" y="0"> </tspan><tspan class="cls-7" x="81.48" y="0">es un ap</tspan><tspan class="cls-7" x="129.99" y="0">o</tspan><tspan class="cls-7" x="137.07" y="0">y</tspan><tspan class="cls-7" x="143.56" y="0">o </tspan><tspan class="cls-7" x="0" y="15.44">fundam</tspan><tspan class="cls-7" x="46.23" y="15.44">e</tspan><tspan class="cls-7" x="52.64" y="15.44">ntal </tspan><tspan class="cls-7" x="78.73" y="15.44">e</tspan><tspan class="cls-7" x="85.14" y="15.44">n</tspan><tspan class="cls-7" x="93.04" y="15.44"> </tspan><tspan class="cls-7" x="95.88" y="15.44">l</tspan><tspan class="cls-7" x="99.88" y="15.44">a</tspan><tspan class="cls-9" x="106.49" y="15.44"> inn</tspan><tspan class="cls-8" x="129.33" y="15.44">o</tspan><tspan class="cls-8" x="136.43" y="15.44">v</tspan><tspan class="cls-8" x="142.82" y="15.44">ación</tspan><tspan x="175.09" y="15.44"> </tspan><tspan class="cls-7" x="0" y="30.88">del</tspan><tspan x="18.18" y="30.88"> </tspan><tspan class="cls-8" x="21.18" y="30.88">ap</tspan><tspan class="cls-8" x="35.57" y="30.88">r</tspan><tspan class="cls-8" x="41.39" y="30.88">e</tspan><tspan class="cls-8" x="47.8" y="30.88">ndizaje</tspan><tspan class="cls-10" x="90.52" y="30.88"> par</tspan><tspan class="cls-7" x="113.91" y="30.88">a</tspan><tspan class="cls-10" x="120.52" y="30.88"> mejora</tspan><tspan class="cls-7" x="165.41" y="30.88">r</tspan><tspan class="cls-7" x="171.14" y="30.88"> </tspan><tspan class="cls-7"><tspan x="0" y="46.32">l</tspan><tspan x="4" y="46.32">a</tspan><tspan x="10.61" y="46.32"> </tspan><tspan x="13.25" y="46.32">vid</tspan><tspan x="31.53" y="46.32">a</tspan><tspan class="cls-11" x="38.13" y="46.32"> de</tspan><tspan x="55.31" y="46.32"> </tspan><tspan x="58.15" y="46.32">las p</tspan><tspan x="85.48" y="46.32">e</tspan><tspan x="91.89" y="46.32">rsonas.</tspan></tspan></text><text class="cls-5" transform="translate(146.19 231.57)">”</text></g></svg>